<?xml version="1.0" standalone="no"?>
<!DOCTYPE svg PUBLIC "-//W3C//DTD SVG 1.1//EN" "http://www.w3.org/Graphics/SVG/1.1/DTD/svg11.dtd" >
<svg xmlns="http://www.w3.org/2000/svg">
<metadata></metadata>
<defs>
<font id="didot_htf_96bold" horiz-adv-x="181" >
<font-face units-per-em="1000" ascent="800" descent="-200" />
<missing-glyph horiz-adv-x="175" />
<glyph unicode=" "  horiz-adv-x="175" />
<glyph unicode="&#x09;" horiz-adv-x="175" />
<glyph unicode="&#xa0;" horiz-adv-x="175" />
<glyph unicode="!" horiz-adv-x="221" d="M173 645q0 -33 -30 -207t-30 -273q0 -2 -2 -2t-2 2q0 99 -30.5 273t-30.5 207q0 81 63 81q62 0 62 -81zM167 46q0 -25 -16.5 -42t-39.5 -17t-39.5 17t-16.5 42q0 24 16.5 41.5t39.5 17.5t39.5 -17.5t16.5 -41.5z" />
<glyph unicode="&#x22;" horiz-adv-x="331" d="M283 672q0 -29 -18 -94t-22 -91q0 -11 -1 -11h-2v11q-4 27 -22.5 92t-18.5 93q0 20 10 37t32 17t32 -17t10 -37zM133 672q0 -29 -18 -94t-22 -91q0 -11 -1 -11h-2v11q-4 27 -22.5 92t-18.5 93q0 20 10 37t32 17t32 -17t10 -37z" />
<glyph unicode="#" horiz-adv-x="482" d="M467 296h-120l-47 -167h119q1 0 1 -2t-1 -2h-120l-49 -168q-2 -2 -4 1l48 167h-139l-48 -168q-1 -1 -3 -1t-2 2l49 167h-119q-2 0 -2 2t2 2h120l48 167h-119q-1 0 -1 2t1 2h120l48 168q2 2 4 -1l-48 -167h139l48 168q2 2 4 -1l-48 -167h119q1 0 1 -2t-1 -2zM343 296h-139 l-47 -167h138z" />
<glyph unicode="$" horiz-adv-x="576" d="M528 219q0 -76 -53 -145t-143 -86v-89q0 -1 -2.5 -1t-2.5 1v88q-20 -4 -47 -4q-21 0 -32 1v-85q0 -1 -2.5 -1t-2.5 1v86q-83 10 -140 55t-57 98q0 33 21 53.5t47 20.5t44.5 -18.5t18.5 -44.5q0 -27 -20 -43.5t-20 -33.5q0 -11 3.5 -22t13.5 -24.5t33 -23.5t56 -14v312 q-83 29 -130 75t-47 130q0 81 49.5 141t127.5 76v88q0 2 2.5 2t2.5 -2v-87q21 3 42 3q19 0 37 -3v87q0 2 2.5 2t2.5 -2v-87q71 -13 121 -57.5t50 -94.5q0 -33 -21 -53.5t-47 -20.5t-44.5 18.5t-18.5 44.5q0 27 20 43.5t20 33.5q0 23 -18.5 48t-61.5 34v-292 q101 -37 148.5 -82t47.5 -126zM327 429v291q-22 2 -36 2q-23 0 -43 -3v-259q23 -11 79 -31zM243 463v255q-53 -10 -83.5 -42t-30.5 -75q0 -82 114 -138zM457 118q0 54 -28 86.5t-97 61.5v-274q60 11 92.5 46.5t32.5 79.5zM327 -9v278q-42 16 -79 30v-311q9 -1 31 -1 q28 0 48 4z" />
<glyph unicode="%" horiz-adv-x="723" d="M387 587q0 -82 -68.5 -155.5t-163.5 -73.5q-53 0 -86.5 34t-33.5 92q0 83 68.5 156t163.5 73q53 0 86.5 -34t33.5 -92zM590 726l-453 -750q-2 -2 -4 3l453 749q2 2 4 -2zM688 220q0 -82 -68.5 -155.5t-163.5 -73.5q-54 0 -87.5 34t-33.5 92q0 82 69 155.5t164 73.5 q53 0 86.5 -34t33.5 -92zM317 641q0 36 -11.5 52t-38.5 16q-37 0 -60 -18q-40 -30 -71 -119t-31 -142q0 -36 11.5 -52t38.5 -16q36 0 60 18q40 30 71 119t31 142zM617 274q0 37 -11 52.5t-38 15.5q-37 0 -60 -18q-40 -30 -71 -119t-31 -142q0 -36 11.5 -52t38.5 -16 q36 0 60 18q40 30 70.5 119t30.5 142z" />
<glyph unicode="&#x26;" horiz-adv-x="663" d="M677 377h-40q-38 0 -56 -16.5t-22 -58.5q-10 -108 -51 -182q22 -34 26 -40q43 -66 75 -66q9 0 16 3q35 14 49 51q2 0 3 -3q-15 -37 -57 -59t-88 -22q-56 0 -107 48q-79 -49 -169 -49q-96 0 -158 57.5t-62 148.5q0 146 161 252q-17 59 -17 97q0 85 39.5 136.5t100.5 51.5 q96 0 96 -89q0 -74 -104 -135q45 -150 193 -377q40 69 50 177q4 40 -14 57.5t-58 17.5h-37q-2 0 -2 2t2 2h231q1 0 1 -2t-1 -2zM413 637q0 37 -19.5 59t-46.5 22q-56 0 -56 -97q0 -49 19 -114q103 58 103 130zM422 35q-31 31 -59 78q-128 210 -164 324q-64 -50 -64 -162 q0 -63 23 -120t73.5 -96.5t119.5 -39.5q34 0 71 16z" />
<glyph unicode="'" d="M133 672q0 -29 -18 -94t-22 -91q0 -11 -1 -11h-2v11q-4 27 -22.5 92t-18.5 93q0 20 10 37t32 17t32 -17t10 -37z" />
<glyph unicode="(" horiz-adv-x="266" d="M314 -242q2 -1 -1 -2h-2q-117 79 -181.5 206t-64.5 285q0 157 64.5 284.5t181.5 206.5q2 0 3 -3q-93 -59 -118 -151t-25 -337q0 -103 3 -165.5t10.5 -118.5t24 -90t41.5 -62t64 -53z" />
<glyph unicode=")" horiz-adv-x="266" d="M201 247q0 -158 -64.5 -285t-181.5 -206q-2 0 -3 2q39 25 64 53t41.5 62t24 90t10.5 118.5t3 165.5q0 245 -25 337t-118 151q-2 1 1 3h2q117 -79 181.5 -206.5t64.5 -284.5z" />
<glyph unicode="*" horiz-adv-x="319" d="M269 557q0 -9 -7.5 -18t-17.5 -9q-13 0 -21 10t-21.5 28t-34.5 30l-5 3v-6q0 -32 12 -55t12 -34q0 -10 -7.5 -17t-18.5 -7t-18.5 7t-7.5 17q0 11 12 34t12 55v6l-6 -3q-21 -12 -34 -30t-21 -28t-21 -10q-11 0 -18.5 9t-7.5 18q0 12 10 19t20 7q40 0 76 21q-36 21 -76 21 q-10 0 -20 7t-10 19q0 9 7.5 18.5t18.5 9.5q13 0 21 -10.5t21 -28t34 -29.5l6 -4v7q0 32 -12 55t-12 33t7.5 17t18.5 7t18.5 -7t7.5 -17t-12 -33t-12 -55v-7l5 4q21 12 34.5 29.5t21.5 28t21 10.5q10 0 17.5 -9.5t7.5 -18.5q0 -12 -9.5 -19t-19.5 -7q-40 0 -76 -21 q36 -21 76 -21q10 0 19.5 -7t9.5 -19z" />
<glyph unicode="+" horiz-adv-x="420" d="M370 211h-158v-158q0 -1 -2 -1t-2 1v158h-158q-2 0 -2 2t2 2h158v158q0 1 2 1t2 -1v-158h158q2 0 2 -2t-2 -2z" />
<glyph unicode="," d="M150 31q0 -45 -39 -107.5t-85 -77.5q-1 -1 -1.5 1t0.5 3q19 6 33 18q39 33 39 68t-37 62q-25 17 -25 48q0 24 16.5 41.5t39.5 17.5q59 0 59 -74z" />
<glyph unicode="-" horiz-adv-x="322" d="M295 267q-15 -22 -18 -61h-250q-2 0 0 4q15 22 18 61h250q4 0 0 -4z" />
<glyph unicode="." d="M146 46q0 -25 -16 -42t-39 -17t-39.5 17t-16.5 42q0 24 16.5 41.5t39.5 17.5q22 0 38.5 -17.5t16.5 -41.5z" />
<glyph unicode="/" horiz-adv-x="358" d="M387 754l-320 -777q-1 -1 -3 -0.5t-2 2.5l321 777q1 2 3 1t1 -3z" />
<glyph unicode="0" horiz-adv-x="535" d="M490 213q0 -92 -65.5 -157t-157.5 -65t-157 65t-65 157q0 91 65.5 156.5t156.5 65.5q92 0 157.5 -65t65.5 -157zM385 213q0 154 -45 195q-26 23 -73 23q-46 0 -72 -23q-45 -41 -45 -195q0 -88 10 -130.5t35 -64.5q24 -23 72 -23q49 0 73 23q25 22 35 64.5t10 130.5z" />
<glyph unicode="1" horiz-adv-x="330" d="M285 0h-241q-2 0 -2 2t2 2h64q7 0 7 3v411q0 4 -7 4h-64q-2 0 -2 2t2 2h241q2 0 2 -2t-2 -2h-64q-6 0 -6 -4v-411q0 -3 6 -3h64q2 0 2 -2t-2 -2z" />
<glyph unicode="2" horiz-adv-x="448" d="M413 3q0 -3 -2 -3h-393q-2 0 -3 3t2 4q149 59 202.5 125t53.5 172q0 71 -20.5 99t-67.5 28q-20 0 -34 -13t-14 -38q0 -8 4 -20t4 -20q0 -16 -12 -26.5t-35 -10.5q-22 0 -32.5 14t-10.5 33q0 30 37.5 57.5t92.5 27.5q82 0 135 -35t53 -105q0 -54 -49.5 -102t-165.5 -118 q-5 -4 4 -4h159q48 0 68 18t20 62q0 1 2 1t2 -1v-148z" />
<glyph unicode="3" horiz-adv-x="412" d="M392 -71q0 -98 -72.5 -157t-157.5 -59q-67 0 -109.5 27.5t-42.5 66.5q0 19 11 33t33 14q23 0 34.5 -10.5t11.5 -26.5q0 -9 -4 -20t-4 -20q0 -60 70 -60q63 0 94 43t31 159q0 117 -22.5 156.5t-78.5 39.5q-22 0 -76 -34q-2 0 -2 3q82 46 109.5 91t27.5 130q0 72 -18 99 t-65 27q-20 0 -34 -12.5t-14 -37.5q0 -9 4 -20.5t4 -19.5q0 -16 -12 -27t-35 -11q-22 0 -32.5 14t-10.5 34q0 30 37.5 57t92.5 27q83 0 135.5 -34.5t52.5 -105.5q0 -56 -53.5 -101.5t-128.5 -75.5q19 4 39 4q86 0 135.5 -57t49.5 -136z" />
<glyph unicode="4" horiz-adv-x="452" d="M459 0h-104v-278h-100v278h-235q-1 0 -1.5 2t0.5 3q31 42 66 116l169 352q28 -11 77.5 10.5t70.5 46.5q4 4 4 -1l-382 -525h231v117q29 3 58 38t38 62q1 1 2.5 1t1.5 -1v-217h104q2 0 2 -2t-2 -2z" />
<glyph unicode="5" horiz-adv-x="405" d="M376 -52q0 -109 -65.5 -172t-149.5 -63q-67 0 -109.5 27.5t-42.5 66.5q0 19 11 33t33 14q23 0 35 -10.5t12 -26.5q0 -9 -4.5 -20t-4.5 -20q0 -60 70 -60q61 0 86 46.5t25 174.5q0 132 -17 174t-70 42q-32 0 -59 -19.5t-36 -54.5q-4 -4 -2 -20l2 -16q0 -7 -5 -7t-5 8 q0 3 1.5 15t1.5 16v334q0 4 -0.5 6t-0.5 3q0 2 1 2t2 -1q26 -24 85 -24q33 0 57.5 13.5t41.5 27t33 13.5q42 0 42 -39q0 -32 -32.5 -53t-81.5 -21q-44 0 -87 23t-56 52v-326q27 75 119 75q85 0 127.5 -60.5t42.5 -152.5z" />
<glyph unicode="6" horiz-adv-x="515" d="M470 195q0 -83 -59.5 -143.5t-143.5 -60.5q-93 0 -150 76.5t-57 226.5q0 105 29 200t85.5 156.5t127.5 61.5q55 0 90.5 -27t35.5 -57q0 -19 -11 -33t-33 -14q-23 0 -35 10.5t-12 26.5q0 8 4 20t4 20q0 50 -43 50q-36 0 -62.5 -29.5t-42 -82t-23 -115t-9.5 -137.5 q36 56 102 56q84 0 143.5 -60.5t59.5 -144.5zM366 195q0 143 -38 181q-21 20 -61 20q-42 0 -72.5 -25.5t-30.5 -45.5v-134q0 -134 42 -176q21 -21 61 -21t61 21q21 20 29.5 60t8.5 120z" />
<glyph unicode="7" horiz-adv-x="415" d="M401 422q-36 -71 -63 -155l-175 -545h-100l300 623h-219q-47 0 -68 -19.5t-21 -64.5q0 -1 -2 -1t-2 1v162q0 3 3 3h338h8q3 0 1 -4z" />
<glyph unicode="8" horiz-adv-x="519" d="M469 198q0 -91 -60 -149t-150 -58q-83 0 -143.5 48.5t-60.5 136.5q0 64 37 113t103 77q-99 77 -99 176q0 65 41 118t122 53q71 0 124.5 -39.5t53.5 -110.5q0 -103 -123 -154q72 -49 113.5 -98.5t41.5 -112.5zM364 560q0 81 -27 115t-78 34q-50 0 -73 -27.5t-23 -72.5 q0 -34 11.5 -62.5t36 -54t44.5 -41.5t56 -40q20 18 29 29t16.5 41t7.5 79zM396 134q0 32 -11 59t-34.5 51t-43.5 40t-56 40.5t-54 38.5q-23 -22 -33.5 -36.5t-19 -50.5t-8.5 -93q0 -105 31 -146.5t92 -41.5q53 0 95 31.5t42 107.5z" />
<glyph unicode="9" horiz-adv-x="508" d="M468 129q0 -106 -29.5 -200t-89 -155t-136.5 -61q-59 0 -97 29t-38 60q0 20 11 34t33 14q23 0 35 -11t12 -27q0 -8 -4.5 -19.5t-4.5 -20.5q0 -26 14.5 -40.5t38.5 -14.5q40 0 67.5 27.5t42.5 79t22.5 108.5t9.5 132q-36 -55 -102 -55q-87 0 -145 62t-58 151 q0 88 58 150.5t145 62.5q96 0 155.5 -75.5t59.5 -230.5zM363 224q0 82 -10 123t-33 62q-23 22 -67 22q-40 0 -62 -22q-21 -20 -28.5 -59.5t-7.5 -127.5q0 -153 36 -188q23 -22 62 -22q43 0 70 22.5t33 49.5q7 16 7 140z" />
<glyph unicode=":" d="M146 339q0 -25 -16 -42t-39 -17t-39.5 17t-16.5 42q0 24 16.5 41.5t39.5 17.5q22 0 38.5 -17.5t16.5 -41.5zM146 46q0 -25 -16 -42t-39 -17t-39.5 17t-16.5 42q0 24 16.5 41.5t39.5 17.5q22 0 38.5 -17.5t16.5 -41.5z" />
<glyph unicode=";" d="M146 339q0 -25 -16 -42t-39 -17t-39.5 17t-16.5 42q0 24 16.5 41.5t39.5 17.5q22 0 38.5 -17.5t16.5 -41.5zM150 31q0 -45 -39 -107.5t-85 -77.5q-1 -1 -1.5 1t0.5 3q19 6 33 18q39 33 39 68t-37 62q-25 17 -25 48q0 24 16.5 41.5t39.5 17.5q59 0 59 -74z" />
<glyph unicode="&#x3c;" horiz-adv-x="335" d="M293 76q2 -2 -2 -4l-241 139q-2 2 0 4l241 139q2 0 2 -3l-238 -138z" />
<glyph unicode="=" horiz-adv-x="379" d="M329 271h-278q-1 0 -1 1.5t1 1.5h278q2 -1 0 -3zM329 152h-278q-1 0 -1 2t1 2h278q2 0 2 -2t-2 -2z" />
<glyph unicode="&#x3e;" horiz-adv-x="335" d="M285 211l-241 -139q-2 -1 -3 1t1 3l238 137l-238 138q-1 1 2 3l241 -139q2 -2 0 -4z" />
<glyph unicode="?" horiz-adv-x="424" d="M388 518q0 -89 -51.5 -144.5t-125.5 -55.5q-51 0 -73 29v-182q0 -2 -2 -2t-2 2v186v3l-1 1q1 2 3 2q19 -35 75 -35q29 0 47 18q11 12 14.5 43t3.5 135q0 141 -37 181q-20 23 -67 23q-36 0 -51 -15t-15 -52q0 -20 7.5 -36.5t7.5 -32.5q0 -21 -15 -35t-41 -14q-57 0 -57 60 q0 49 48.5 89t115.5 40q94 0 155 -58t61 -150zM192 46q0 -25 -16.5 -42t-39.5 -17t-39.5 17t-16.5 42q0 24 16.5 41.5t39.5 17.5t39.5 -17.5t16.5 -41.5z" />
<glyph unicode="@" horiz-adv-x="825" d="M759 403q0 -56 -22 -101t-56.5 -71.5t-73 -40.5t-76.5 -14q-59 0 -83.5 30t-13.5 73q-18 -54 -48.5 -78t-64.5 -24q-54 0 -80 36.5t-26 90.5q0 81 68 155t157 74q51 0 55 -45l12 36h80l-50 -159q-32 -95 -31 -137t42 -42q82 0 144.5 60t62.5 157q0 148 -94.5 233.5 t-238.5 85.5q-152 0 -260 -107.5t-108 -259.5q0 -153 108 -260.5t260 -107.5q131 0 232 82q2 1 3 -2q-101 -84 -235 -84q-154 0 -263 109t-109 263t109 262.5t263 108.5q145 0 241 -86.5t96 -236.5zM491 474q3 26 -10.5 41t-40.5 15q-25 0 -51 -19q-40 -31 -71.5 -121 t-31.5 -147q0 -31 9 -45t31 -14q40 0 66.5 29.5t36.5 65.5z" />
<glyph unicode="A" horiz-adv-x="672" d="M701 0h-340q-2 0 -2 2t2 2h95q5 0 5 4l-85 238h-220l-74 -200q-5 -14 -7.5 -22t-3.5 -12.5t0 -6t3 -1.5h92q2 0 2 -2t-2 -2h-189q-1 0 -1 2t1 2h76q7 0 11 6.5t14 35.5l248 677q1 2 2.5 2t2.5 -2l277 -715q2 -4 8 -4h85q1 0 1 -2t-1 -2zM374 250l-106 302l-111 -302h217z " />
<glyph unicode="B" horiz-adv-x="660" d="M616 188q0 -77 -63 -132.5t-176 -55.5h-338q-2 0 -2 2t2 2h89q7 0 7 4v693q0 4 -7 4h-89q-2 0 -2 2t2 2h288q100 0 168 -42.5t68 -121.5q0 -70 -58 -118.5t-134 -48.5q109 0 177 -51t68 -139zM443 541q0 91 -28 127.5t-104 36.5h-32q-7 0 -7 -4v-321h73q57 0 77.5 34 t20.5 127zM481 182q0 116 -32.5 155.5t-113.5 39.5h-63v-369q0 -4 7 -4h70q72 0 102 40t30 138z" />
<glyph unicode="C" horiz-adv-x="666" d="M617 -15q0 -1 -1.5 -1t-1.5 1q-2 11 -14.5 20.5t-32.5 9.5q-22 0 -85.5 -16t-93.5 -16q-143 0 -240.5 110t-97.5 261q0 152 95 262t238 110q25 0 81 -13.5t79 -13.5q21 0 35 7.5t16 16.5q0 1 2 1t2 -1v-233q0 -2 -2 -2t-2 2q0 76 -68.5 154t-142.5 78q-75 0 -113 -39 q-69 -69 -69 -329t69 -329q39 -39 118 -39q92 0 159 80.5t67 181.5q1 1 3 0v-263z" />
<glyph unicode="D" horiz-adv-x="748" d="M698 354q0 -146 -97.5 -250t-234.5 -104h-327q-1 0 -1 2t1 2h89q7 0 7 4v693q0 4 -7 4h-89q-1 0 -1 2t1 2h327q137 0 234.5 -104t97.5 -251zM548 354q0 248 -69 314q-40 37 -113 37h-87q-7 0 -7 -4v-693q0 -4 7 -4h87q73 0 113 37q38 36 53.5 104t15.5 209z" />
<glyph unicode="E" horiz-adv-x="658" d="M634 3q0 -3 -3 -3h-593q-2 0 -2 2t2 2h90q7 0 7 4v693q0 4 -7 4h-90q-2 0 -2 2t2 2h539q3 0 3 -3v-206q0 -2 -2 -2t-2 2q0 77 -53 141t-143 64h-101q-7 0 -7 -4v-335h26q60 0 101 41t41 94q1 1 3 0v-274q-1 -1 -3 0q0 53 -41 94t-101 41h-26v-354q0 -4 7 -4h104 q117 0 182 69t65 156q0 1 2 1t2 -1v-226z" />
<glyph unicode="F" horiz-adv-x="633" d="M581 500q0 -2 -2 -2t-2 2q0 77 -53.5 141t-143.5 64h-101q-7 0 -7 -4v-335h17q60 0 100.5 41t40.5 94q0 1 2 1t2 -1v-274q0 -1 -2 -1t-2 1q0 53 -40.5 94t-100.5 41h-17v-354q0 -4 7 -4h90q1 0 1 -2t-1 -2h-330q-1 0 -1 2t1 2h90q6 0 6 4v693q0 4 -6 4h-90q-1 0 -1 2t1 2 h539q3 0 3 -3v-206z" />
<glyph unicode="G" horiz-adv-x="697" d="M730 268h-90q-6 0 -6 -3v-269q0 -3 -4 -1q-2 1 -2 2q-3 11 -18 23.5t-34 12.5q-17 0 -45.5 -12.5t-70.5 -25t-92 -12.5q-142 0 -230 110t-88 261q0 152 95 262t237 110q24 0 73 -13.5t73 -13.5q21 0 35 7.5t16 16.5q1 1 2.5 1t1.5 -1v-233q0 -2 -2 -2t-2 2q0 78 -61 155 t-136 77q-74 0 -113 -39q-69 -69 -69 -329q0 -154 10 -224t45 -105q40 -39 113 -39q128 0 128 93v186q0 3 -6 3h-90q-2 0 -2 2t2 2h330q2 0 2 -2t-2 -2z" />
<glyph unicode="H" horiz-adv-x="796" d="M757 0h-320q-1 0 -1 2t1 2h80q6 0 6 4v359h-251v-359q0 -4 7 -4h80q1 0 1 -2t-1 -2h-320q-1 0 -1 2t1 2h89q7 0 7 4v693q0 4 -7 4h-89q-1 0 -1 2t1 2h320q1 0 1 -2t-1 -2h-80q-7 0 -7 -4v-330h251v330q0 4 -6 4h-80q-1 0 -1 2t1 2h320q1 0 1 -2t-1 -2h-90q-6 0 -6 -4 v-693q0 -4 6 -4h90q1 0 1 -2t-1 -2z" />
<glyph unicode="I" horiz-adv-x="407" d="M369 0h-330q-1 0 -1 2t1 2h90q6 0 6 4v693q0 4 -6 4h-90q-1 0 -1 2t1 2h330q1 0 1 -2t-1 -2h-90q-6 0 -6 -4v-693q0 -4 6 -4h90q1 0 1 -2t-1 -2z" />
<glyph unicode="J" horiz-adv-x="515" d="M502 705h-90q-7 0 -7 -4v-534q0 -86 -56.5 -135t-151.5 -49q-69 0 -126 46.5t-57 100.5q0 41 26.5 67.5t58.5 26.5q33 0 56 -23.5t23 -56.5q0 -34 -25 -54t-25 -42q0 -25 21.5 -43.5t47.5 -18.5q33 0 52 21t19 61v633q0 4 -6 4h-90q-2 0 -2 2t2 2h330q2 0 2 -2t-2 -2z " />
<glyph unicode="K" horiz-adv-x="697" d="M789 0h-372q-1 0 -1 2t1 2h104q5 0 3 4l-251 343v-343q0 -4 6 -4h90q1 0 1 -2t-1 -2h-330q-1 0 -1 2t1 2h90q6 0 6 4v693q0 4 -6 4h-90q-1 0 -1 2t1 2h330q1 0 1 -2t-1 -2h-90q-6 0 -6 -4v-344l268 306q38 42 28 42h-93q-2 0 -2 2t2 2h201q1 0 1 -2t-1 -2h-85 q-5 0 -11 -5.5t-34 -36.5l-188 -215l329 -440q4 -4 9 -4h92q2 0 2 -2t-2 -2z" />
<glyph unicode="L" horiz-adv-x="627" d="M608 3q0 -3 -3 -3h-566q-1 0 -1 2t1 2h90q6 0 6 4v693q0 4 -6 4h-90q-1 0 -1 2t1 2h330q1 0 1 -2t-1 -2h-90q-6 0 -6 -4v-693q0 -4 6 -4h102q73 0 125.5 38t75 89.5t22.5 106.5q0 2 2 2t2 -2v-235z" />
<glyph unicode="M" horiz-adv-x="896" d="M857 0h-330q-1 0 -1 2t1 2h90q6 0 6 4v691l-219 -712q-1 -2 -2.5 -2t-2.5 2l-264 712v-691q0 -4 6 -4h90q1 0 1 -2t-1 -2h-197q-2 0 -2 2t2 2h90q6 0 6 4v693q0 4 -6 4h-90q-2 0 -2 2t2 2h230q8 0 16 -18l183 -492l152 492q5 18 13 18h229q1 0 1 -2t-1 -2h-90q-7 0 -7 -4 v-693q0 -4 7 -4h90q1 0 1 -2t-1 -2z" />
<glyph unicode="N" horiz-adv-x="744" d="M715 705h-90q-6 0 -6 -4v-714q0 -8 -6 0l-478 712v-691q0 -4 6 -4h90q1 0 1 -2t-1 -2h-197q-2 0 -2 2t2 2h90q6 0 6 4v693q0 4 -6 4h-90q-2 0 -2 2t2 2h244q10 0 23 -18l313 -473v483q0 4 -6 4h-90q-2 0 -2 2t2 2h197q1 0 1 -2t-1 -2z" />
<glyph unicode="O" horiz-adv-x="765" d="M715 354q0 -154 -97.5 -262.5t-235.5 -108.5q-137 0 -234.5 108.5t-97.5 262.5q0 152 95 262t237 110q138 0 235.5 -109t97.5 -263zM565 354q0 259 -70 329q-38 39 -113 39q-74 0 -112 -39q-70 -70 -70 -329q0 -148 16 -219.5t54 -109.5q39 -39 112 -39q74 0 113 39 q38 38 54 109.5t16 219.5z" />
<glyph unicode="P" horiz-adv-x="655" d="M624 492q0 -92 -68.5 -146.5t-187.5 -54.5q-47 0 -95 12v-295q0 -4 6 -4h90q1 0 1 -2t-1 -2h-330q-1 0 -1 2t1 2h90q6 0 6 4v693q0 4 -6 4h-90q-1 0 -1 2t1 2h302q133 0 208 -61t75 -156zM488 492q0 213 -147 213h-62q-6 0 -6 -4v-390q37 -16 95 -16q70 0 95 43.5 t25 153.5z" />
<glyph unicode="Q" horiz-adv-x="765" d="M714 354q0 -106 -49 -194.5t-129 -134.5q-29 -17 -65.5 -31t-81.5 -29t-67 -23q69 0 118 -10.5t75.5 -27t45 -37t31 -41t27.5 -37t42 -27t67 -10.5q2 0 2 -1.5t-2 -1.5q-80 0 -138.5 10.5t-90.5 27t-53.5 36.5t-32.5 40.5t-21.5 37t-28 27t-44.5 10.5q-10 0 -22 -7.5 t-15 -7.5q-6 0 -6 5q0 8 34 14q18 8 41 15.5t51 16.5t44 15q-30 -6 -64 -6q-137 0 -234.5 108.5t-97.5 262.5q0 152 95 262t237 110q138 0 235 -108.5t97 -263.5zM564 354q0 260 -69 329q-39 39 -113 39t-113 -39q-69 -69 -69 -329q0 -148 15.5 -219.5t53.5 -109.5 q40 -39 113 -39t113 39q38 38 53.5 109.5t15.5 219.5z" />
<glyph unicode="R" horiz-adv-x="702" d="M760 18q-35 -35 -95 -35q-72 0 -123 47.5t-51 146.5v65q0 125 -150 125h-69v-359q0 -4 7 -4h90q1 0 1 -2t-1 -2h-330q-1 0 -1 2t1 2h90q6 0 6 4v693q0 4 -6 4h-90q-1 0 -1 2t1 2h317q112 0 178.5 -49.5t66.5 -124.5q0 -71 -59 -118.5t-152 -47.5q125 0 183.5 -54.5 t58.5 -139.5v-90q0 -39 17 -66t45 -27q39 0 64 29q2 0 2 -3zM463 531q0 94 -30.5 134t-101.5 40h-52q-7 0 -7 -4v-330h69q74 0 98 32t24 128z" />
<glyph unicode="S" horiz-adv-x="566" d="M539 219q0 -88 -68 -162t-180 -74q-40 0 -97 20.5t-78 20.5t-37.5 -12t-18.5 -26q-2 -3 -4 0v239q0 2 2 2t2 -2q0 -70 69.5 -154.5t160.5 -84.5q84 0 131 39t47 92q0 69 -46 104.5t-173 80.5q-82 29 -127 75t-45 128q0 93 58.5 157t137.5 64q25 0 70.5 -13.5t69.5 -13.5 q38 0 42 24q0 2 2 2t2 -2v-185q0 -2 -2 -2t-2 2q0 71 -56 127.5t-125 56.5q-60 0 -97 -34.5t-37 -87.5t44 -92.5t140 -73.5q112 -40 163.5 -85t51.5 -130z" />
<glyph unicode="T" horiz-adv-x="668" d="M648 470q0 -2 -2 -2t-2 2q0 94 -60.5 164.5t-165.5 70.5h-11q-6 0 -6 -4v-693q0 -4 6 -4h90q1 0 1 -2t-1 -2h-330q-1 0 -1 2t1 2h90q6 0 6 4v693q0 4 -6 4h-11q-105 0 -163.5 -70t-58.5 -165q0 -2 -2 -2t-2 2v236q0 3 3 3h623q2 0 2 -3v-236z" />
<glyph unicode="U" horiz-adv-x="729" d="M720 705h-90q-6 0 -6 -4v-491q0 -107 -61 -167t-185 -60q-121 0 -192 54.5t-71 162.5v501q0 4 -6 4h-90q-1 0 -1 2t1 2h330q1 0 1 -2t-1 -2h-90q-7 0 -7 -4v-501q0 -101 33.5 -153t118.5 -52q108 0 161.5 57.5t53.5 157.5v491q0 4 -6 4h-90q-1 0 -1 2t1 2h197q2 0 2 -2 t-2 -2z" />
<glyph unicode="V" horiz-adv-x="705" d="M733 705h-84q-10 0 -24 -42l-241 -678q-1 -2 -2.5 -2t-2.5 2l-316 716q-1 4 -8 4h-91q-2 0 -2 2t2 2h359q1 0 1 -2t-1 -2h-107q-4 0 -5 -1t0 -3l231 -540l178 502q14 41 7 42h-96q-1 0 -1 2t1 2h202q1 0 1 -2t-1 -2z" />
<glyph unicode="W" horiz-adv-x="1018" d="M1069 705h-83q-11 0 -25 -42l-235 -678q-1 -1 -3 -1t-3 1l-194 522l-182 -522q-2 -4 -5 0l-286 716q-2 4 -8 4h-91q-2 0 -2 2t2 2h344q2 0 2 -2t-2 -2h-93q-4 0 -5 -1t0 -3l207 -525l116 337l-70 188q0 4 -8 4h-76q-1 0 -1 2t1 2h339q2 0 2 -2t-2 -2h-107q-3 0 -4.5 -1 t-0.5 -3l192 -527l170 494q5 13 7 20t2.5 11t-0.5 5t-4 1h-96q-1 0 -1 2t1 2h202q1 0 1 -2t-1 -2z" />
<glyph unicode="X" horiz-adv-x="716" d="M751 0h-358q-1 0 -1 2t1 2h104q5 0 3 4l-170 299l-161 -261q-24 -39 -19 -41q1 -1 4 -1h90q2 0 2 -2t-2 -2h-202q-2 0 -2 2t2 2h87q9 0 34 42l164 266l-225 389q-2 4 -8 4h-93q-1 0 -1 2t1 2h358q1 0 1 -2t-1 -2h-103q-6 0 -4 -4l150 -265l140 227q23 39 18 41q-1 1 -4 1 h-89q-1 0 -1 2t1 2h201q2 0 2 -2t-2 -2h-86q-8 0 -35 -42l-142 -232l245 -423q2 -4 9 -4h92q1 0 1 -2t-1 -2z" />
<glyph unicode="Y" horiz-adv-x="670" d="M695 705h-78q-9 0 -30 -42l-160 -337v-318q0 -4 7 -4h90q2 0 2 -2t-2 -2h-330q-2 0 -2 2t2 2h90q6 0 6 4v301l-205 392q-2 4 -8 4h-93q-2 0 -2 2t2 2h363q1 0 1 -2t-1 -2h-108q-6 0 -4 -4l191 -367l157 329q15 40 11 42h-101q-1 0 -1 2t1 2h202q1 0 1 -2t-1 -2z" />
<glyph unicode="Z" horiz-adv-x="644" d="M591 3q0 -3 -3 -3h-530q-5 0 -2 8l386 693q2 4 -4 4h-121q-98 0 -160 -71.5t-62 -163.5q0 -2 -2 -2t-2 2v236q0 3 3 3h492q4 0 1 -8l-386 -693q-2 -4 4 -4h156q97 0 161.5 74t64.5 165q0 1 2 1t2 -1v-240z" />
<glyph unicode="[" horiz-adv-x="275" d="M312 -244h-223q-4 0 -4 4v974q0 3 4 3h223q2 0 2 -1.5t-2 -1.5h-115q-7 0 -7 -4v-967q0 -3 7 -3h115q2 0 2 -2t-2 -2z" />
<glyph unicode="\" horiz-adv-x="358" d="M296 -21q0 -2 -2 -2.5t-3 0.5l-320 777q-1 2 1 3t3 -1z" />
<glyph unicode="]" horiz-adv-x="275" d="M190 -240q0 -4 -4 -4h-223q-1 0 -1 2t1 2h115q7 0 7 3v967q0 4 -7 4h-115q-1 0 -1 1.5t1 1.5h223q4 0 4 -3v-974z" />
<glyph unicode="^" horiz-adv-x="326" d="M307 526q1 -2 0 -3t-3 0l-137 85l-127 -85q-2 -1 -3 0t0 3q111 130 133 165q2 4 4 0q27 -42 133 -165z" />
<glyph unicode="_" horiz-adv-x="570" d="M535 0h-500q-1 0 -1 2t1 2h500q1 0 1 -2t-1 -2z" />
<glyph unicode="`" horiz-adv-x="354" d="M312 516q2 -2 -1 -4q-131 32 -182.5 75t-51.5 86q0 15 10 25t26 10q18 0 35 -25.5t31.5 -57.5t49 -64.5t83.5 -44.5z" />
<glyph unicode="a" horiz-adv-x="436" d="M437 31q-5 -15 -26 -27t-48 -12q-32 0 -56.5 18.5t-29.5 46.5q-20 -65 -104 -65q-57 0 -98 25.5t-41 79.5q0 37 14.5 63t38.5 38.5t42.5 18t38.5 7.5q83 8 97 18q7 5 7 12v76q0 102 -64 102q-21 0 -35 -13t-14 -38q0 -9 4.5 -20t4.5 -20q0 -16 -12 -26.5t-35 -10.5 q-22 0 -33 14t-11 33q0 30 37.5 57.5t93.5 27.5q78 0 121 -45t43 -136v-215q0 -34 26 -34q12 0 22 8.5t13 17.5q2 2 4 -1zM272 70v171q-10 -7 -23.5 -10.5t-34 -6t-28.5 -4.5q-27 -5 -40.5 -31.5t-13.5 -91.5q0 -59 15.5 -78t43.5 -19q36 0 58.5 20.5t22.5 49.5z" />
<glyph unicode="b" horiz-adv-x="521" d="M481 210q0 -84 -62 -151.5t-146 -67.5q-57 0 -93 41v-29q0 -3 -3 -3h-158q-1 0 -1 2t1 2h55q6 0 6 4v719q0 4 -6 4h-55q-1 0 -1 2t1 2h158q3 0 3 -3v-338q36 41 93 41q84 0 146 -69.5t62 -155.5zM376 210q0 159 -39 198q-22 23 -64 23q-58 0 -93 -44v-337q10 -27 36 -41 t57 -14q41 0 64 23q39 39 39 192z" />
<glyph unicode="c" horiz-adv-x="441" d="M419 86q-29 -43 -74.5 -69t-96.5 -26q-87 0 -148 65t-61 157t61 157t148 65q66 0 108.5 -31t42.5 -70q0 -46 -45 -46q-20 0 -31.5 11t-11.5 27q0 12 6 25t6 29q0 51 -75 51q-42 0 -65 -23q-21 -22 -30 -64.5t-9 -130.5t9 -130.5t30 -64.5q23 -23 65 -23q51 0 95.5 25.5 t71.5 67.5q2 1 4 -2z" />
<glyph unicode="d" horiz-adv-x="511" d="M503 0h-159q-3 0 -3 3v44q-7 -22 -30.5 -39t-61.5 -17q-84 0 -146 67.5t-62 151.5q0 86 62 155.5t146 69.5q57 0 92 -41v333q0 4 -6 4h-55q-2 0 -2 2t2 2h159q2 0 2 -3v-724q0 -4 7 -4h55q1 0 1 -2t-1 -2zM341 72v315q-33 44 -92 44q-42 0 -64 -23q-40 -40 -40 -198 q0 -152 40 -192q23 -23 64 -23q43 0 67.5 22.5t24.5 54.5z" />
<glyph unicode="e" horiz-adv-x="464" d="M430 241q0 -3 -3 -3h-283v-25q0 -88 9 -130.5t31 -64.5q23 -23 64 -23q52 0 96.5 25.5t71.5 67.5q1 1 2.5 0t0.5 -2q-29 -44 -74 -69.5t-97 -25.5q-86 0 -147 65t-61 157t61 157t147 65q85 0 133.5 -63.5t48.5 -130.5zM336 242q-3 129 -33 166q-20 23 -55 23 q-41 0 -64 -23q-36 -36 -39 -166h191z" />
<glyph unicode="f" horiz-adv-x="310" d="M361 670q0 -21 -13.5 -36t-34.5 -15q-47 0 -47 37q0 12 7 24.5t7 27.5q0 16 -6.5 23t-22.5 7q-51 0 -51 -118v-190q0 -4 7 -4h82q2 0 2 -2t-2 -2h-82q-7 0 -7 -4v-410q0 -4 7 -4h54q2 0 2 -2t-2 -2h-222q-1 0 -1 2t1 2h55q6 0 6 4v410q0 4 -6 4h-69q-1 0 -1 2t1 2h69 q6 0 6 4v20q0 294 172 294q36 0 62.5 -20t26.5 -54z" />
<glyph unicode="g" horiz-adv-x="485" d="M506 391q0 -13 -9.5 -24t-21.5 -11q-13 0 -21.5 7.5t-8.5 16.5q0 8 4 14t4 11q0 16 -18 16q-35 0 -57 -49q33 -45 33 -97q0 -67 -48.5 -114t-116.5 -47q-76 0 -126 58q-33 -23 -33 -67q0 -41 20 -54.5t72 -13.5h115q199 0 199 -163q0 -86 -75.5 -137.5t-164.5 -51.5 q-100 0 -163.5 39.5t-63.5 97.5q0 42 29.5 79t72.5 48q-39 11 -60.5 38t-21.5 65q0 76 72 123q-36 44 -36 100q0 67 48 113.5t116 46.5q81 0 128 -60q29 60 83 60q20 0 34.5 -11.5t14.5 -32.5zM320 275q0 112 -28 141q-15 16 -46 16q-30 0 -45 -16q-28 -29 -28 -141 q0 -111 28 -140q16 -17 45 -17q30 0 46 17q28 29 28 140zM435 -168q0 46 -34 79t-87 33h-144q-19 0 -34 4q-40 -26 -40 -113q0 -78 39 -112.5t118 -34.5q76 0 129 38t53 106z" />
<glyph unicode="h" horiz-adv-x="528" d="M519 0h-223q-2 0 -2 2t2 2h55q7 0 7 4v321q0 50 -18.5 76t-46.5 26q-87 0 -113 -84v-339q0 -4 6 -4h55q1 0 1 -2t-1 -2h-222q-1 0 -1 2t1 2h55q6 0 6 4v719q0 4 -6 4h-55q-1 0 -1 2t1 2h158q3 0 3 -3v-375q13 39 44.5 58.5t68.5 19.5q77 0 120.5 -44t43.5 -123v-260 q0 -4 7 -4h55q1 0 1 -2t-1 -2z" />
<glyph unicode="i" horiz-adv-x="270" d="M203 674q0 -26 -18.5 -44.5t-44.5 -18.5t-44.5 18.5t-18.5 44.5t18.5 44.5t44.5 18.5t44.5 -18.5t18.5 -44.5zM252 0h-223q-1 0 -1 2t1 2h55q6 0 6 4v410q0 4 -6 4h-55q-1 0 -1 2t1 2h159q2 0 2 -3v-415q0 -4 7 -4h55q2 0 2 -2t-2 -2z" />
<glyph unicode="j" horiz-adv-x="265" d="M203 674q0 -26 -18.5 -44.5t-44.5 -18.5t-44.5 18.5t-18.5 44.5t18.5 44.5t44.5 18.5t44.5 -18.5t18.5 -44.5zM190 -23q0 -294 -171 -294q-37 0 -63.5 19.5t-26.5 53.5q0 21 13.5 36t34.5 15q47 0 47 -37q0 -12 -7 -24.5t-7 -27.5q0 -16 6.5 -23t22.5 -7q51 0 51 118v612 q0 4 -6 4h-55q-1 0 -1 2t1 2h158q3 0 3 -3v-446z" />
<glyph unicode="k" horiz-adv-x="489" d="M534 0h-243q-1 0 -1 2t1 2h55q6 0 3 4l-169 221v-221q0 -4 6 -4h55q1 0 1 -2t-1 -2h-222q-2 0 -2 2t2 2h54q7 0 7 4v719q0 4 -7 4h-54q-2 0 -2 2t2 2h158q3 0 3 -3v-497l159 145q45 41 37 42h-70q-2 0 -2 2t2 2h148q2 0 2 -2t-2 -2h-54q-11 0 -56 -42l-98 -90l217 -282 q3 -4 9 -4h62q2 0 2 -2t-2 -2z" />
<glyph unicode="l" horiz-adv-x="250" d="M242 0h-223q-1 0 -1 2t1 2h54q7 0 7 4v719q0 4 -7 4h-54q-1 0 -1 2t1 2h159q2 0 2 -3v-724q0 -4 7 -4h55q2 0 2 -2t-2 -2z" />
<glyph unicode="m" horiz-adv-x="805" d="M796 0h-222q-2 0 -2 2t2 2h54q7 0 7 4v321q0 50 -18.5 76t-46.5 26q-49 0 -81 -29.5t-32 -61.5v-332q0 -4 7 -4h55q1 0 1 -2t-1 -2h-223q-2 0 -2 2t2 2h55q6 0 6 4v321q0 50 -18 76t-46 26q-87 0 -113 -84v-339q0 -4 6 -4h55q1 0 1 -2t-1 -2h-222q-2 0 -2 2t2 2h55 q6 0 6 4v410q0 4 -6 4h-55q-2 0 -2 2t2 2h158q3 0 3 -3v-66q13 39 44.5 58.5t68.5 19.5q130 0 161 -86q8 40 43 63t73 23q165 0 165 -146v-281q0 -4 6 -4h55q2 0 2 -2t-2 -2z" />
<glyph unicode="n" horiz-adv-x="528" d="M519 0h-223q-2 0 -2 2t2 2h55q7 0 7 4v321q0 50 -18.5 76t-46.5 26q-87 0 -113 -84v-339q0 -4 6 -4h55q1 0 1 -2t-1 -2h-222q-1 0 -1 2t1 2h55q6 0 6 4v410q0 4 -6 4h-55q-1 0 -1 2t1 2h158q3 0 3 -3v-66q13 39 44.5 58.5t68.5 19.5q77 0 120.5 -44t43.5 -123v-260 q0 -4 7 -4h55q1 0 1 -2t-1 -2z" />
<glyph unicode="o" horiz-adv-x="497" d="M457 213q0 -92 -61 -157t-148 -65q-86 0 -147 65t-61 157t61 157t147 65q87 0 148 -65t61 -157zM352 213q0 155 -39 195q-23 23 -65 23q-41 0 -64 -23q-39 -40 -39 -195q0 -88 9 -130.5t30 -64.5q23 -23 64 -23q42 0 65 23q21 22 30 64.5t9 130.5z" />
<glyph unicode="p" horiz-adv-x="521" d="M481 210q0 -84 -62 -151.5t-147 -67.5q-56 0 -92 41v-333q0 -4 6 -4h55q1 0 1 -2t-1 -2h-222q-1 0 -1 2t1 2h55q6 0 6 4v719q0 4 -6 4h-55q-1 0 -1 2t1 2h158q3 0 3 -3v-29q36 41 92 41q84 0 146.5 -70t62.5 -155zM376 210q0 159 -39 198q-23 23 -65 23q-57 0 -92 -44 v-337q10 -26 36 -40.5t56 -14.5q43 0 65 23q39 39 39 192z" />
<glyph unicode="q" horiz-adv-x="511" d="M502 -309h-222q-2 0 -2 2t2 2h55q6 0 6 4v348q-7 -23 -30.5 -39.5t-61.5 -16.5q-85 0 -147 67.5t-62 151.5q0 85 62.5 155t146.5 70q56 0 92 -41v29q0 3 3 3h158q2 0 2 -2t-2 -2h-55q-6 0 -6 -4v-719q0 -4 6 -4h55q2 0 2 -2t-2 -2zM341 72v315q-35 44 -92 44 q-42 0 -65 -23q-39 -39 -39 -198q0 -153 39 -192q22 -23 65 -23t67.5 22.5t24.5 54.5z" />
<glyph unicode="r" horiz-adv-x="386" d="M362 361q0 -20 -15.5 -35.5t-36.5 -15.5q-23 0 -36.5 11t-13.5 27q0 13 7 24.5t7 19.5q0 14 -8.5 22t-20.5 8q-42 0 -65 -77v-337q0 -4 6 -4h55q1 0 1 -2t-1 -2h-222q-1 0 -1 2t1 2h55q6 0 6 4v411q0 3 -6 3h-55q-1 0 -1 2t1 2h158q3 0 3 -3v-66q25 78 92 78 q37 0 63.5 -20t26.5 -54z" />
<glyph unicode="s" horiz-adv-x="367" d="M344 137q0 -63 -39 -104.5t-108 -41.5q-30 0 -64 13.5t-51 13.5q-12 0 -22.5 -6.5t-12.5 -12.5q-2 -2 -4 0l5 154q0 1 2 1t2 -1q-2 -57 41 -107.5t104 -50.5q91 0 91 85q0 37 -28 60t-88 40q-51 14 -83.5 46t-32.5 73q0 63 36.5 99.5t85.5 36.5q15 0 37 -5t45 -5 q21 0 21 14q0 1 2 1t2 -1v-127q0 -2 -2 -2t-2 2q0 50 -32.5 84.5t-70.5 34.5q-73 0 -73 -69q0 -36 27.5 -58.5t87.5 -39.5q55 -15 89.5 -47t34.5 -80z" />
<glyph unicode="t" horiz-adv-x="304" d="M288 79q-22 -88 -106 -88q-48 0 -70 24t-22 73v331q0 3 -7 3h-69q-2 0 -2 2t2 2h69q7 0 7 4v102q32 3 60.5 20.5t35.5 39.5q1 1 3 0v-162q0 -4 7 -4h83q1 0 1 -2t-1 -2h-83q-7 0 -7 -3v-384q0 -29 29 -29q21 0 39.5 19.5t27.5 54.5q0 1 3 -1z" />
<glyph unicode="u" horiz-adv-x="518" d="M509 0h-159q-2 0 -2 3v67q-13 -40 -44.5 -59t-69.5 -19q-77 0 -120.5 40.5t-43.5 118.5v268q0 3 -6 3h-55q-1 0 -1 2t1 2h158q3 0 3 -3v-326q0 -50 18.5 -75.5t45.5 -25.5q87 0 114 83v340q0 3 -7 3h-55q-2 0 -2 2t2 2h159q2 0 2 -3v-415q0 -4 7 -4h55q1 0 1 -2t-1 -2z " />
<glyph unicode="v" horiz-adv-x="415" d="M443 422h-53q-6 0 -10 -7t-14 -34l-143 -388q-1 -2 -2.5 -2t-2.5 2l-195 426q-1 3 -8 3h-47q-2 0 -2 2t2 2h223q1 0 1 -2t-1 -2h-52q-4 0 -5 -0.5t0 -2.5l128 -309l100 270q13 41 7 42h-54q-1 0 -1 2t1 2h128q1 0 1 -2t-1 -2z" />
<glyph unicode="w" horiz-adv-x="667" d="M698 422h-52q-6 0 -10.5 -7t-13.5 -34l-136 -388q-1 -2 -3 -2t-3 2l-146 333l-117 -333q-1 -2 -3 -2t-3 2l-187 426q-2 3 -8 3h-48q-2 0 -2 2t2 2h217q1 0 1 -2t-1 -2h-49q-4 0 -5 -0.5t0 -2.5l127 -298l74 211l-39 87q-3 3 -8 3h-41q-2 0 -2 2t2 2h216q2 0 2 -2t-2 -2 h-55q-4 0 -5 -0.5t0 -2.5l127 -298l91 259q13 41 6 42h-54q-2 0 -2 2t2 2h128q2 0 2 -2t-2 -2z" />
<glyph unicode="x" horiz-adv-x="474" d="M494 0h-226q-2 0 -2 2t2 2h51q7 0 4 4l-117 178l-104 -140q-28 -41 -22 -42h72q2 0 2 -2t-2 -2h-149q-1 0 -1 2t1 2h53q6 0 14 7.5t27 34.5l107 144l-151 229q-3 3 -9 3h-48q-2 0 -2 2t2 2h226q2 0 2 -2t-2 -2h-51q-4 -1 -4 -3l95 -144l79 105q28 41 20 42h-70q-2 0 -2 2 t2 2h148q2 0 2 -2t-2 -2h-55q-6 0 -12.5 -7t-26.5 -34l-81 -110l173 -263q3 -4 9 -4h48q2 0 2 -2t-2 -2z" />
<glyph unicode="y" horiz-adv-x="415" d="M443 422h-53q-6 0 -10 -7t-14 -34l-227 -617q-17 -46 -34 -63.5t-47 -17.5q-31 0 -51 16t-20 45q0 25 15 42.5t36 17.5t32.5 -11t11.5 -28q0 -13 -10 -28t-10 -26q0 -15 22 -15q26 0 50 66l85 228l-196 429q-1 3 -8 3h-47q-2 0 -2 2t2 2h223q1 0 1 -2t-1 -2h-52 q-4 0 -5 -0.5t0 -2.5l128 -309l100 270q14 41 7 42h-54q-1 0 -1 2t1 2h128q1 0 1 -2t-1 -2z" />
<glyph unicode="z" horiz-adv-x="421" d="M379 3q0 -3 -3 -3h-350q-4 0 -1 8l243 411q1 2 0 2.5t-5 0.5h-58q-70 0 -108 -37t-38 -96q0 -1 -2 -1t-2 1v134q0 3 2 3h313q6 0 1 -7l-242 -411q-3 -4 4 -4h82q76 0 118 41.5t42 105.5q0 1 2 1t2 -1v-148z" />
<glyph unicode="{" horiz-adv-x="279" d="M281 -244h-21q-88 0 -139 58t-51 151q0 45 19.5 95.5t39 91.5t19.5 63q0 24 -16 28q-10 2 -11 2q-6 0 -13.5 -1.5t-11.5 -1.5q-8 0 -8 5q0 4 8 4q4 0 11.5 -1t13.5 -1t11 2q16 4 16 27t-39 108t-39 142q0 93 51 151t139 58h21q1 0 1 -1.5t-1 -1.5h-21q-53 0 -76 -38 t-23 -126q0 -36 15 -122t15 -124q0 -24 -16 -47t-44 -30q28 -8 44 -31t16 -47q0 -38 -15 -124t-15 -122q0 -87 23 -125t76 -38h21q1 0 1 -2t-1 -2z" />
<glyph unicode="|" horiz-adv-x="154" d="M79 -23q0 -1 -2 -1t-2 1v779q0 2 2 2t2 -2v-779z" />
<glyph unicode="}" horiz-adv-x="279" d="M209 -35q0 -93 -51 -151t-139 -58h-21q-2 0 -2 2t2 2h21q53 0 76 38t23 125q0 36 -15 122t-15 124q0 24 16 47t44 31q-28 7 -44 30t-16 47q0 38 15 124t15 122q0 88 -23 126t-76 38h-21q-2 0 -2 1.5t2 1.5h21q88 0 139 -58t51 -151q0 -57 -39 -142t-39 -108t16 -27 q5 -2 11 -2t13.5 1t11.5 1q8 0 8 -4q0 -5 -8 -5q-4 0 -11.5 1.5t-13.5 1.5q-1 0 -11 -2q-16 -4 -16 -28q0 -22 19.5 -63t39 -91.5t19.5 -95.5z" />
<glyph unicode="~" horiz-adv-x="406" d="M370 414q0 -48 -33 -80.5t-79 -32.5q-37 0 -89.5 31t-72.5 31q-22 0 -39 -21t-17 -48q0 -2 -2 -2t-2 2q0 48 33 80.5t79 32.5q36 0 89 -30.5t72 -30.5q23 0 40 20.5t17 47.5q0 2 2 2t2 -2z" />
<glyph unicode="&#xa1;" horiz-adv-x="221" d="M167 339q0 -24 -16.5 -41.5t-39.5 -17.5t-39.5 17.5t-16.5 41.5q0 25 16.5 42t39.5 17t39.5 -17t16.5 -42zM174 -260q0 -81 -63 -81q-62 0 -62 81q0 33 30 207t30 273q0 2 2 2t2 -2q0 -99 30.5 -273t30.5 -207z" />
<glyph unicode="&#xa2;" horiz-adv-x="441" d="M419 86q-29 -43 -74.5 -68.5t-96.5 -25.5v-70q0 -2 -2.5 -2t-2.5 2v70q-85 1 -144.5 66t-59.5 155q0 91 59.5 155.5t144.5 66.5v70q0 1 2.5 1t2.5 -1v-70q66 0 108.5 -31t42.5 -70q0 -46 -45 -46q-20 0 -31.5 11t-11.5 27q0 12 6 25t6 29q0 51 -75 51v-436 q51 0 95.5 25.5t71.5 67.5q1 2 3 1t1 -3zM243 -5v436q-40 -2 -60 -23q-21 -22 -30 -64.5t-9 -130.5t9 -130.5t30 -64.5q21 -21 60 -23z" />
<glyph unicode="&#xa3;" horiz-adv-x="573" d="M556 127q-4 -53 -53 -98.5t-109 -45.5q-75 0 -200 54q-62 -54 -113 -54q-20 0 -39 12.5t-19 38.5q0 28 34.5 55.5t84.5 27.5q54 0 96 -8q12 27 12 56q0 18 -6 42t-13 42t-20.5 52t-19.5 50h-79q-2 0 -2 2t2 2h78q-29 78 -29 128q0 95 60 169t149 74q50 0 88 -32t38 -68 q0 -23 -17 -40.5t-41 -17.5q-51 0 -51 43q0 13 11.5 31.5t11.5 33.5q0 45 -55 45q-88 0 -88 -185q0 -32 12 -96.5t15 -84.5h96q2 0 2 -2t-2 -2h-96q8 -50 8 -108q0 -63 -49 -137q19 -4 60.5 -17.5t81 -20t93.5 -6.5q26 0 43.5 19.5t20.5 46.5q1 1 2.5 1t1.5 -2zM188 40 q-77 34 -110 34q-52 0 -52 -42q0 -22 18.5 -33.5t39.5 -11.5q49 0 104 53z" />
<glyph unicode="&#xa5;" horiz-adv-x="637" d="M657 705h-78q-10 0 -30 -42l-133 -280h167q1 0 1 -2t-1 -2h-169l-25 -53v-76h194q1 0 1 -2t-1 -2h-194v-238q0 -4 7 -4h89q2 0 2 -2t-2 -2h-299q-2 0 -2 2t2 2h90q6 0 6 4v238h-193q-2 0 -2 2t2 2h193v60l-35 69h-158q-2 0 -2 2t2 2h155l-166 318q-2 4 -9 4h-92 q-1 0 -1 2t1 2h339q2 0 2 -2t-2 -2h-109q-5 0 -3 -4l188 -360l152 322q18 41 12 42h-101q-1 0 -1 2t1 2h202q1 0 1 -2t-1 -2z" />
<glyph unicode="&#xa7;" horiz-adv-x="525" d="M475 220q0 -53 -21 -91t-73 -92q62 -57 62 -131q0 -94 -57.5 -158.5t-150.5 -64.5q-63 0 -122 38t-59 82q0 23 12.5 35t31.5 12q20 0 33.5 -11t13.5 -29q0 -8 -6.5 -22t-6.5 -27q0 -33 32.5 -53.5t70.5 -20.5q66 0 107 40.5t41 107.5q0 37 -18.5 66t-47.5 49t-65 38 t-71.5 37.5t-64.5 43t-47.5 58.5t-18.5 80q0 53 20.5 91.5t72.5 91.5q-61 58 -61 131q0 94 57 158.5t150 64.5q63 0 112 -31t49 -75q0 -23 -12.5 -35t-31.5 -12q-21 0 -34 11t-13 29q0 8 6 22t6 27q0 60 -82 60q-66 0 -107 -40.5t-41 -107.5q0 -42 24.5 -75t62 -53 t80.5 -43.5t80.5 -46.5t62 -63t24.5 -91zM436 146q0 40 -32 74t-73 55t-97 52.5t-87 59.5q-59 -61 -59 -107q0 -40 32 -74t73.5 -55t97 -52t87.5 -59q58 62 58 106z" />
<glyph unicode="&#xa8;" horiz-adv-x="439" d="M364 591q0 -21 -13.5 -35.5t-33.5 -14.5t-34 14.5t-14 35.5t14 35.5t34 14.5t33.5 -14.5t13.5 -35.5zM170 591q0 -21 -13.5 -35.5t-33.5 -14.5t-34 14.5t-14 35.5t14 35.5t34 14.5t33.5 -14.5t13.5 -35.5z" />
<glyph unicode="&#xa9;" horiz-adv-x="844" d="M794 355q0 -154 -109 -263t-263 -109t-263 109t-109 263t109 262.5t263 108.5t263 -108.5t109 -262.5zM790 355q0 152 -108 259.5t-260 107.5t-260 -107.5t-108 -259.5q0 -153 108 -260.5t260 -107.5t260 107.5t108 260.5zM572 139q-4 -4 -4 0q-1 6 -8.5 11.5t-18.5 5.5 q-14 0 -52 -9.5t-56 -9.5q-86 0 -144.5 66t-58.5 157t57.5 157t142.5 66q15 0 48.5 -8t47.5 -8q27 0 31 14q0 1 1 1t2 -1v-140q-1 -1 -2 -1t-1 1q0 45 -41.5 91.5t-85.5 46.5q-45 0 -68 -23q-42 -41 -42 -196t42 -196q23 -23 71 -23q55 0 95 47.5t40 107.5q0 1 1.5 1t2.5 -1 v-157z" />
<glyph unicode="&#xaa;" horiz-adv-x="346" d="M329 428q-3 -11 -18.5 -20t-35.5 -9q-23 0 -41.5 13.5t-22.5 34.5q-15 -48 -77 -48q-42 0 -72 18.5t-30 58.5q0 84 99 94q19 1 29.5 2.5t23 3.5t18 6t5.5 10v56q0 74 -47 74q-15 0 -25.5 -9t-10.5 -28q0 -6 3.5 -14.5t3.5 -14.5q0 -11 -9 -19.5t-26 -8.5 q-16 0 -24.5 10.5t-8.5 24.5q0 22 28 42.5t69 20.5q121 0 121 -133v-158q0 -25 20 -25q8 0 15.5 6t9.5 13q1 0 3 -1zM207 458v124q-8 -5 -18 -7.5t-24 -5t-21 -3.5q-20 -3 -30 -22.5t-10 -67.5q0 -42 11.5 -56.5t32.5 -14.5q26 0 42.5 15.5t16.5 37.5z" />
<glyph unicode="&#xab;" horiz-adv-x="375" d="M338 50q0 -3 -3.5 -3t-3.5 3q0 27 -17.5 55.5t-44 50t-46.5 34.5t-35 21q-4 2 0 4q23 12 51 30.5t60 56t32 73.5q0 3 3.5 3t3.5 -3q0 -44 -21 -91.5t-46 -70.5q25 -23 46 -71t21 -92zM190 50q0 -3 -3.5 -3t-3.5 3q0 27 -17.5 55.5t-44 50t-46.5 34.5t-35 21q-4 2 0 4 q23 12 51 30.5t60 56t32 73.5q0 3 3.5 3t3.5 -3q0 -44 -21 -91.5t-46 -70.5q25 -23 46 -71t21 -92z" />
<glyph unicode="&#xae;" horiz-adv-x="844" d="M794 355q0 -154 -109 -263t-263 -109t-263 109t-109 263t109 262.5t263 108.5t263 -108.5t109 -262.5zM790 355q0 152 -108 259.5t-260 107.5t-260 -107.5t-108 -259.5q0 -153 108 -260.5t260 -107.5t260 107.5t108 260.5zM666 158q-21 -21 -56 -21q-43 0 -74 28.5 t-31 87.5v39q0 75 -90 75h-41v-214q0 -2 4 -2h53q1 0 1 -2t-1 -2h-198q-1 0 -1 2t1 2h54q4 0 4 2v413q0 3 -4 3h-54q-1 0 -1 1.5t1 1.5h191q67 0 107 -29.5t40 -74.5q0 -42 -35.5 -70.5t-91.5 -28.5q75 0 110.5 -33t35.5 -84v-54q0 -24 9 -39t26 -15q22 0 39 17q1 0 2 -3z M488 466q0 56 -18 79.5t-61 23.5h-31q-4 0 -4 -3v-196h41q44 0 58.5 19.5t14.5 76.5z" />
<glyph unicode="&#xaf;" horiz-adv-x="400" d="M360 597h-320q-2 0 -2 5.5t2 5.5h320q2 0 2 -5.5t-2 -5.5z" />
<glyph unicode="&#xb0;" horiz-adv-x="283" d="M218 636q0 -32 -22.5 -54.5t-53.5 -22.5q-32 0 -54.5 22.5t-22.5 54.5t22.5 54.5t54.5 22.5q31 0 53.5 -22.5t22.5 -54.5zM213 636q0 30 -21 51.5t-50 21.5q-30 0 -51 -21.5t-21 -51.5t21 -51.5t51 -21.5q29 0 50 21.5t21 51.5z" />
<glyph unicode="&#xb4;" horiz-adv-x="354" d="M274 673q0 -43 -51.5 -86t-182.5 -75q-2 0 -2.5 1.5t1.5 2.5q49 12 83.5 44.5t49 64.5t31.5 57.5t35 25.5q16 0 26 -10t10 -25z" />
<glyph unicode="&#xb6;" horiz-adv-x="646" d="M607 0h-225q-137 0 -234.5 104t-97.5 250q0 147 97.5 251t234.5 104h225q1 0 1 -2t-1 -2h-90q-6 0 -6 -4v-693q0 -4 6 -4h90q1 0 1 -2t-1 -2zM506 8v693q0 4 -7 4h-87q-6 0 -6 -4v-693q0 -4 6 -4h87q7 0 7 4z" />
<glyph unicode="&#xb7;" d="M146 354q0 -25 -16 -42t-39 -17t-39.5 17t-16.5 42q0 24 16.5 41.5t39.5 17.5q22 0 38.5 -17.5t16.5 -41.5z" />
<glyph unicode="&#xb8;" horiz-adv-x="289" d="M205 -150q0 -35 -19 -56t-53 -21q-27 0 -43.5 14.5t-16.5 29.5q0 10 6.5 17.5t17.5 7.5q22 0 22 -20q0 -9 -5 -15.5t-5 -10.5q0 -20 24 -20q26 0 44 15t18 38q0 12 -12.5 20.5t-28 14.5t-28 21t-12.5 38q0 40 22 69q1 2 2.5 2t1.5 -2q-10 -12 -10 -28q0 -20 11.5 -32.5 t26 -18t26 -21.5t11.5 -42z" />
<glyph unicode="&#xba;" horiz-adv-x="387" d="M347 562q0 -68 -45 -115.5t-109 -47.5t-108.5 47.5t-44.5 115.5t44.5 116t108.5 48t109 -48t45 -116zM269 562q0 114 -28 143q-17 17 -48 17q-30 0 -47 -17q-28 -29 -28 -143q0 -112 28 -143q18 -17 47 -17q30 0 48 17q28 31 28 143z" />
<glyph unicode="&#xbb;" horiz-adv-x="375" d="M335 211q-15 -8 -35 -21t-46.5 -34.5t-44 -50t-17.5 -55.5q0 -3 -3.5 -3t-3.5 3q0 44 21 92t46 71q-25 23 -46 70.5t-21 91.5q0 3 3.5 3t3.5 -3q0 -36 32 -73.5t60 -56t51 -30.5q4 -2 0 -4zM187 211q-15 -8 -35 -21t-46.5 -34.5t-44 -50t-17.5 -55.5q0 -3 -3.5 -3t-3.5 3 q0 44 21 92t46 71q-25 23 -46 70.5t-21 91.5q0 3 3.5 3t3.5 -3q0 -36 32 -73.5t60 -56t51 -30.5q4 -2 0 -4z" />
<glyph unicode="&#xbf;" horiz-adv-x="424" d="M344 339q0 -24 -16.5 -41.5t-39.5 -17.5t-39.5 17.5t-16.5 41.5q0 25 16.5 42t39.5 17t39.5 -17t16.5 -42zM416 -212q0 -49 -48.5 -89t-115.5 -40q-94 0 -155 58t-61 150q0 89 51.5 144.5t125.5 55.5q51 0 73 -29v182q0 2 2 2t2 -2v-186v-2l1 -2q-1 -2 -3 -2 q-19 35 -75 35q-29 0 -47 -18q-11 -12 -14.5 -43t-3.5 -135q0 -141 37 -181q20 -23 67 -23q36 0 51 15t15 52q0 20 -7.5 36.5t-7.5 32.5q0 21 15 35t41 14q57 0 57 -60z" />
<glyph unicode="&#xc0;" horiz-adv-x="672" d="M701 0h-340q-2 0 -2 2t2 2h95q5 0 5 4l-85 238h-220l-74 -200q-5 -14 -7.5 -22t-3.5 -12.5t0 -6t3 -1.5h92q2 0 2 -2t-2 -2h-189q-1 0 -1 2t1 2h76q7 0 11 6.5t14 35.5l248 677q1 2 2.5 2t2.5 -2l277 -715q2 -4 8 -4h85q1 0 1 -2t-1 -2zM374 250l-106 302l-111 -302h217z M363 771q2 -2 -1 -4q-131 32 -182.5 75t-51.5 86q0 15 10 25t26 10q18 0 35 -25.5t31.5 -57.5t49 -64.5t83.5 -44.5z" />
<glyph unicode="&#xc1;" horiz-adv-x="672" d="M701 0h-340q-2 0 -2 2t2 2h95q5 0 5 4l-85 238h-220l-74 -200q-5 -14 -7.5 -22t-3.5 -12.5t0 -6t3 -1.5h92q2 0 2 -2t-2 -2h-189q-1 0 -1 2t1 2h76q7 0 11 6.5t14 35.5l248 677q1 2 2.5 2t2.5 -2l277 -715q2 -4 8 -4h85q1 0 1 -2t-1 -2zM374 250l-106 302l-111 -302h217z M538 928q0 -43 -51.5 -86t-182.5 -75q-2 0 -2.5 1.5t1.5 2.5q49 12 83.5 44.5t49 64.5t31.5 57.5t35 25.5q16 0 26 -10t10 -25z" />
<glyph unicode="&#xc2;" horiz-adv-x="672" d="M701 0h-340q-2 0 -2 2t2 2h95q5 0 5 4l-85 238h-220l-74 -200q-5 -14 -7.5 -22t-3.5 -12.5t0 -6t3 -1.5h92q2 0 2 -2t-2 -2h-189q-1 0 -1 2t1 2h76q7 0 11 6.5t14 35.5l248 677q1 2 2.5 2t2.5 -2l277 -715q2 -4 8 -4h85q1 0 1 -2t-1 -2zM374 250l-106 302l-111 -302h217z M467 781q1 -1 0 -2.5t-3 -0.5l-137 85l-127 -85q-2 -1 -3 0.5t0 2.5q111 130 133 165q2 4 4 0q27 -42 133 -165z" />
<glyph unicode="&#xc3;" horiz-adv-x="672" d="M701 0h-340q-2 0 -2 2t2 2h95q5 0 5 4l-85 238h-220l-74 -200q-5 -14 -7.5 -22t-3.5 -12.5t0 -6t3 -1.5h92q2 0 2 -2t-2 -2h-189q-1 0 -1 2t1 2h76q7 0 11 6.5t14 35.5l248 677q1 2 2.5 2t2.5 -2l277 -715q2 -4 8 -4h85q1 0 1 -2t-1 -2zM374 250l-106 302l-111 -302h217z M499 919q0 -48 -33 -80.5t-79 -32.5q-37 0 -89.5 31t-72.5 31q-22 0 -39 -21t-17 -48q0 -1 -2 -1t-2 1q0 48 33 80.5t79 32.5q36 0 89 -30.5t72 -30.5q23 0 40 20.5t17 47.5q0 1 2 1t2 -1z" />
<glyph unicode="&#xc4;" horiz-adv-x="672" d="M701 0h-340q-2 0 -2 2t2 2h95q5 0 5 4l-85 238h-220l-74 -200q-5 -14 -7.5 -22t-3.5 -12.5t0 -6t3 -1.5h92q2 0 2 -2t-2 -2h-189q-1 0 -1 2t1 2h76q7 0 11 6.5t14 35.5l248 677q1 2 2.5 2t2.5 -2l277 -715q2 -4 8 -4h85q1 0 1 -2t-1 -2zM374 250l-106 302l-111 -302h217z M476 846q0 -21 -13.5 -35.5t-33.5 -14.5t-34 14.5t-14 35.5t14 35.5t34 14.5t33.5 -14.5t13.5 -35.5zM282 846q0 -21 -13.5 -35.5t-33.5 -14.5t-34 14.5t-14 35.5t14 35.5t34 14.5t33.5 -14.5t13.5 -35.5z" />
<glyph unicode="&#xc5;" horiz-adv-x="672" d="M701 0h-340q-2 0 -2 2t2 2h95q3 0 4.5 1t0.5 3l-85 238h-220l-74 -200q-5 -14 -7.5 -22t-3.5 -12.5t0 -6t3 -1.5h92q2 0 2 -2t-2 -2h-189q-1 0 -1 2t1 2h76q7 0 11 6.5t14 35.5l246 672q-30 2 -51 24.5t-21 52.5q0 32 22.5 54.5t54.5 22.5q31 0 53.5 -22.5t22.5 -54.5 q0 -31 -21 -53t-51 -24l275 -710q2 -4 8 -4h85q1 0 1 -2t-1 -2zM400 795q0 30 -21 51.5t-50 21.5q-30 0 -51 -21.5t-21 -51.5t21 -51.5t51 -21.5q29 0 50 21.5t21 51.5zM374 250l-106 302l-111 -302h217z" />
<glyph unicode="&#xc6;" horiz-adv-x="957" d="M933 3q0 -3 -3 -3h-593q-1 0 -1 2t1 2h90q7 0 7 4v288h-232l-141 -250q-23 -41 -17 -42h92q2 0 2 -2t-2 -2h-189q-1 0 -1 2t1 2h76q7 0 11.5 6t21.5 36l373 659h-92q-1 0 -1 2t1 2h539q3 0 3 -3v-206q0 -2 -2 -2t-2 2q0 77 -53 141t-143 64h-102q-6 0 -6 -4v-335h26 q60 0 101 41t41 94q1 1 3 0v-274q-1 -1 -3 0q0 53 -41 94t-101 41h-26v-354q0 -4 6 -4h105q117 0 182 69t65 156q0 1 2 1t2 -1v-226zM434 299v405l-230 -405h230z" />
<glyph unicode="&#xc7;" horiz-adv-x="666" d="M617 -15q0 -1 -1.5 -1t-1.5 1q-2 11 -14.5 20.5t-32.5 9.5q-21 0 -91 -17.5t-114 -13.5q-6 -14 -6 -20q0 -20 11.5 -32.5t26 -18t26 -21.5t11.5 -42q0 -35 -19 -56t-53 -21q-27 0 -43.5 14.5t-16.5 29.5q0 10 6.5 17.5t17.5 7.5q22 0 22 -20q0 -9 -5 -15.5t-5 -10.5 q0 -20 24 -20q26 0 44 15t18 38q0 12 -12.5 20.5t-28 14.5t-28 21t-12.5 38q0 33 17 61q-132 13 -219.5 120.5t-87.5 249.5q0 152 95 262t238 110q25 0 81 -13.5t79 -13.5q21 0 35 7.5t16 16.5q0 1 2 1t2 -1v-233q0 -2 -2 -2t-2 2q0 76 -68.5 154t-142.5 78q-75 0 -113 -39 q-69 -69 -69 -329t69 -329q39 -39 118 -39q92 0 159 80.5t67 181.5q1 1 3 0v-263z" />
<glyph unicode="&#xc8;" horiz-adv-x="658" d="M634 3q0 -3 -3 -3h-593q-2 0 -2 2t2 2h90q7 0 7 4v693q0 4 -7 4h-90q-2 0 -2 2t2 2h539q3 0 3 -3v-206q0 -2 -2 -2t-2 2q0 77 -53 141t-143 64h-101q-7 0 -7 -4v-335h26q60 0 101 41t41 94q1 1 3 0v-274q-1 -1 -3 0q0 53 -41 94t-101 41h-26v-354q0 -4 7 -4h104 q117 0 182 69t65 156q0 1 2 1t2 -1v-226zM441 771q2 -2 -1 -4q-131 32 -182.5 75t-51.5 86q0 15 10 25t26 10q18 0 35 -25.5t31.5 -57.5t49 -64.5t83.5 -44.5z" />
<glyph unicode="&#xc9;" horiz-adv-x="658" d="M634 3q0 -3 -3 -3h-593q-2 0 -2 2t2 2h90q7 0 7 4v693q0 4 -7 4h-90q-2 0 -2 2t2 2h539q3 0 3 -3v-206q0 -2 -2 -2t-2 2q0 77 -53 141t-143 64h-101q-7 0 -7 -4v-335h26q60 0 101 41t41 94q1 1 3 0v-274q-1 -1 -3 0q0 53 -41 94t-101 41h-26v-354q0 -4 7 -4h104 q117 0 182 69t65 156q0 1 2 1t2 -1v-226zM522 928q0 -43 -51.5 -86t-182.5 -75q-2 0 -2.5 1.5t1.5 2.5q49 12 83.5 44.5t49 64.5t31.5 57.5t35 25.5q16 0 26 -10t10 -25z" />
<glyph unicode="&#xca;" horiz-adv-x="658" d="M634 3q0 -3 -3 -3h-593q-2 0 -2 2t2 2h90q7 0 7 4v693q0 4 -7 4h-90q-2 0 -2 2t2 2h539q3 0 3 -3v-206q0 -2 -2 -2t-2 2q0 77 -53 141t-143 64h-101q-7 0 -7 -4v-335h26q60 0 101 41t41 94q1 1 3 0v-274q-1 -1 -3 0q0 53 -41 94t-101 41h-26v-354q0 -4 7 -4h104 q117 0 182 69t65 156q0 1 2 1t2 -1v-226zM477 781q1 -1 0 -2.5t-3 -0.5l-137 85l-127 -85q-2 -1 -3 0.5t0 2.5q111 130 133 165q2 4 4 0q27 -42 133 -165z" />
<glyph unicode="&#xcb;" horiz-adv-x="658" d="M634 3q0 -3 -3 -3h-593q-2 0 -2 2t2 2h90q7 0 7 4v693q0 4 -7 4h-90q-2 0 -2 2t2 2h539q3 0 3 -3v-206q0 -2 -2 -2t-2 2q0 77 -53 141t-143 64h-101q-7 0 -7 -4v-335h26q60 0 101 41t41 94q1 1 3 0v-274q-1 -1 -3 0q0 53 -41 94t-101 41h-26v-354q0 -4 7 -4h104 q117 0 182 69t65 156q0 1 2 1t2 -1v-226zM491 846q0 -21 -13.5 -35.5t-33.5 -14.5t-34 14.5t-14 35.5t14 35.5t34 14.5t33.5 -14.5t13.5 -35.5zM297 846q0 -21 -13.5 -35.5t-33.5 -14.5t-34 14.5t-14 35.5t14 35.5t34 14.5t33.5 -14.5t13.5 -35.5z" />
<glyph unicode="&#xcc;" horiz-adv-x="347" d="M369 0h-330q-1 0 -1 2t1 2h90q6 0 6 4v693q0 4 -6 4h-90q-1 0 -1 2t1 2h330q1 0 1 -2t-1 -2h-90q-6 0 -6 -4v-693q0 -4 6 -4h90q1 0 1 -2t-1 -2zM305 771q2 -2 -1 -4q-131 32 -182.5 75t-51.5 86q0 15 10 25t26 10q18 0 35 -25.5t31.5 -57.5t49 -64.5t83.5 -44.5z" />
<glyph unicode="&#xcd;" horiz-adv-x="347" d="M369 0h-330q-1 0 -1 2t1 2h90q6 0 6 4v693q0 4 -6 4h-90q-1 0 -1 2t1 2h330q1 0 1 -2t-1 -2h-90q-6 0 -6 -4v-693q0 -4 6 -4h90q1 0 1 -2t-1 -2zM354 928q0 -43 -51.5 -86t-182.5 -75q-2 0 -2.5 1.5t1.5 2.5q49 12 83.5 44.5t49 64.5t31.5 57.5t35 25.5q16 0 26 -10 t10 -25z" />
<glyph unicode="&#xce;" horiz-adv-x="347" d="M369 0h-330q-1 0 -1 2t1 2h90q6 0 6 4v693q0 4 -6 4h-90q-1 0 -1 2t1 2h330q1 0 1 -2t-1 -2h-90q-6 0 -6 -4v-693q0 -4 6 -4h90q1 0 1 -2t-1 -2zM345 781q1 -1 0 -2.5t-3 -0.5l-137 85l-127 -85q-2 -1 -3 0.5t0 2.5q111 130 133 165q2 4 4 0q27 -42 133 -165z" />
<glyph unicode="&#xcf;" horiz-adv-x="347" d="M369 0h-330q-1 0 -1 2t1 2h90q6 0 6 4v693q0 4 -6 4h-90q-1 0 -1 2t1 2h330q1 0 1 -2t-1 -2h-90q-6 0 -6 -4v-693q0 -4 6 -4h90q1 0 1 -2t-1 -2zM356 846q0 -21 -13.5 -35.5t-33.5 -14.5t-34 14.5t-14 35.5t14 35.5t34 14.5t33.5 -14.5t13.5 -35.5zM162 846 q0 -21 -13.5 -35.5t-33.5 -14.5t-34 14.5t-14 35.5t14 35.5t34 14.5t33.5 -14.5t13.5 -35.5z" />
<glyph unicode="&#xd1;" horiz-adv-x="744" d="M715 705h-90q-6 0 -6 -4v-714q0 -8 -6 0l-478 712v-691q0 -4 6 -4h90q1 0 1 -2t-1 -2h-197q-2 0 -2 2t2 2h90q6 0 6 4v693q0 4 -6 4h-90q-2 0 -2 2t2 2h244q10 0 23 -18l313 -473v483q0 4 -6 4h-90q-2 0 -2 2t2 2h197q1 0 1 -2t-1 -2zM556 919q0 -48 -33 -80.5t-79 -32.5 q-37 0 -89.5 31t-72.5 31q-22 0 -39 -21t-17 -48q0 -1 -2 -1t-2 1q0 48 33 80.5t79 32.5q36 0 89 -30.5t72 -30.5q23 0 40 20.5t17 47.5q0 1 2 1t2 -1z" />
<glyph unicode="&#xd2;" horiz-adv-x="765" d="M715 354q0 -154 -97.5 -262.5t-235.5 -108.5q-137 0 -234.5 108.5t-97.5 262.5q0 152 95 262t237 110q138 0 235.5 -109t97.5 -263zM565 354q0 259 -70 329q-38 39 -113 39q-74 0 -112 -39q-70 -70 -70 -329q0 -148 16 -219.5t54 -109.5q39 -39 112 -39q74 0 113 39 q38 38 54 109.5t16 219.5zM433 771q2 -2 -1 -4q-131 32 -182.5 75t-51.5 86q0 15 10 25t26 10q18 0 35 -25.5t31.5 -57.5t49 -64.5t83.5 -44.5z" />
<glyph unicode="&#xd3;" horiz-adv-x="765" d="M715 354q0 -154 -97.5 -262.5t-235.5 -108.5q-137 0 -234.5 108.5t-97.5 262.5q0 152 95 262t237 110q138 0 235.5 -109t97.5 -263zM565 354q0 259 -70 329q-38 39 -113 39q-74 0 -112 -39q-70 -70 -70 -329q0 -148 16 -219.5t54 -109.5q39 -39 112 -39q74 0 113 39 q38 38 54 109.5t16 219.5zM542 928q0 -43 -51.5 -86t-182.5 -75q-2 0 -2.5 1.5t1.5 2.5q49 12 83.5 44.5t49 64.5t31.5 57.5t35 25.5q16 0 26 -10t10 -25z" />
<glyph unicode="&#xd4;" horiz-adv-x="765" d="M715 354q0 -154 -97.5 -262.5t-235.5 -108.5q-137 0 -234.5 108.5t-97.5 262.5q0 152 95 262t237 110q138 0 235.5 -109t97.5 -263zM565 354q0 259 -70 329q-38 39 -113 39q-74 0 -112 -39q-70 -70 -70 -329q0 -148 16 -219.5t54 -109.5q39 -39 112 -39q74 0 113 39 q38 38 54 109.5t16 219.5zM523 781q1 -1 0 -2.5t-3 -0.5l-137 85l-127 -85q-2 -1 -3 0.5t0 2.5q111 130 133 165q2 4 4 0q27 -42 133 -165z" />
<glyph unicode="&#xd5;" horiz-adv-x="805" d="M715 354q0 -154 -97.5 -262.5t-235.5 -108.5q-137 0 -234.5 108.5t-97.5 262.5q0 152 95 262t237 110q138 0 235.5 -109t97.5 -263zM565 354q0 259 -70 329q-38 39 -113 39q-74 0 -112 -39q-70 -70 -70 -329q0 -148 16 -219.5t54 -109.5q39 -39 112 -39q74 0 113 39 q38 38 54 109.5t16 219.5zM553 919q0 -48 -33 -80.5t-79 -32.5q-37 0 -89.5 31t-72.5 31q-22 0 -39 -21t-17 -48q0 -1 -2 -1t-2 1q0 48 33 80.5t79 32.5q36 0 89 -30.5t72 -30.5q23 0 40 20.5t17 47.5q0 1 2 1t2 -1z" />
<glyph unicode="&#xd6;" horiz-adv-x="765" d="M715 354q0 -154 -97.5 -262.5t-235.5 -108.5q-137 0 -234.5 108.5t-97.5 262.5q0 152 95 262t237 110q138 0 235.5 -109t97.5 -263zM565 354q0 259 -70 329q-38 39 -113 39q-74 0 -112 -39q-70 -70 -70 -329q0 -148 16 -219.5t54 -109.5q39 -39 112 -39q74 0 113 39 q38 38 54 109.5t16 219.5zM524 846q0 -21 -13.5 -35.5t-33.5 -14.5t-34 14.5t-14 35.5t14 35.5t34 14.5t33.5 -14.5t13.5 -35.5zM330 846q0 -21 -13.5 -35.5t-33.5 -14.5t-34 14.5t-14 35.5t14 35.5t34 14.5t33.5 -14.5t13.5 -35.5z" />
<glyph unicode="&#xd8;" horiz-adv-x="765" d="M715 354q0 -154 -97.5 -262.5t-235.5 -108.5q-98 0 -183 61l-41 -68q-2 -2 -4 3l41 68q-67 51 -106 132t-39 175q0 152 95 262t237 110q103 0 186 -63l39 65q2 2 4 -2q-21 -34 -40 -66q66 -51 105 -131.5t39 -174.5zM536 611q-17 48 -41 72q-38 39 -113 39 q-74 0 -112 -39q-70 -70 -70 -329q0 -179 26 -256zM565 354q0 170 -27 251l-78 -128q-77 -128 -154 -257l-78 -128q15 -40 42 -67q39 -39 112 -39q74 0 113 39q38 38 54 109.5t16 219.5z" />
<glyph unicode="&#xd9;" horiz-adv-x="729" d="M720 705h-90q-6 0 -6 -4v-491q0 -107 -61 -167t-185 -60q-121 0 -192 54.5t-71 162.5v501q0 4 -6 4h-90q-1 0 -1 2t1 2h330q1 0 1 -2t-1 -2h-90q-7 0 -7 -4v-501q0 -101 33.5 -153t118.5 -52q108 0 161.5 57.5t53.5 157.5v491q0 4 -6 4h-90q-1 0 -1 2t1 2h197q2 0 2 -2 t-2 -2zM489 771q2 -2 -1 -4q-131 32 -182.5 75t-51.5 86q0 15 10 25t26 10q18 0 35 -25.5t31.5 -57.5t49 -64.5t83.5 -44.5z" />
<glyph unicode="&#xda;" horiz-adv-x="729" d="M720 705h-90q-6 0 -6 -4v-491q0 -107 -61 -167t-185 -60q-121 0 -192 54.5t-71 162.5v501q0 4 -6 4h-90q-1 0 -1 2t1 2h330q1 0 1 -2t-1 -2h-90q-7 0 -7 -4v-501q0 -101 33.5 -153t118.5 -52q108 0 161.5 57.5t53.5 157.5v491q0 4 -6 4h-90q-1 0 -1 2t1 2h197q2 0 2 -2 t-2 -2zM552 928q0 -43 -51.5 -86t-182.5 -75q-2 0 -2.5 1.5t1.5 2.5q49 12 83.5 44.5t49 64.5t31.5 57.5t35 25.5q16 0 26 -10t10 -25z" />
<glyph unicode="&#xdb;" horiz-adv-x="729" d="M720 705h-90q-6 0 -6 -4v-491q0 -107 -61 -167t-185 -60q-121 0 -192 54.5t-71 162.5v501q0 4 -6 4h-90q-1 0 -1 2t1 2h330q1 0 1 -2t-1 -2h-90q-7 0 -7 -4v-501q0 -101 33.5 -153t118.5 -52q108 0 161.5 57.5t53.5 157.5v491q0 4 -6 4h-90q-1 0 -1 2t1 2h197q2 0 2 -2 t-2 -2zM531 781q1 -1 0 -2.5t-3 -0.5l-137 85l-127 -85q-2 -1 -3 0.5t0 2.5q111 130 133 165q2 4 4 0q27 -42 133 -165z" />
<glyph unicode="&#xdc;" horiz-adv-x="729" d="M720 705h-90q-6 0 -6 -4v-491q0 -107 -61 -167t-185 -60q-121 0 -192 54.5t-71 162.5v501q0 4 -6 4h-90q-1 0 -1 2t1 2h330q1 0 1 -2t-1 -2h-90q-7 0 -7 -4v-501q0 -101 33.5 -153t118.5 -52q108 0 161.5 57.5t53.5 157.5v491q0 4 -6 4h-90q-1 0 -1 2t1 2h197q2 0 2 -2 t-2 -2zM544 846q0 -21 -13.5 -35.5t-33.5 -14.5t-34 14.5t-14 35.5t14 35.5t34 14.5t33.5 -14.5t13.5 -35.5zM350 846q0 -21 -13.5 -35.5t-33.5 -14.5t-34 14.5t-14 35.5t14 35.5t34 14.5t33.5 -14.5t13.5 -35.5z" />
<glyph unicode="&#xdf;" horiz-adv-x="583" d="M529 193q0 -97 -49.5 -149t-106.5 -52q-47 0 -77 25t-30 59q0 17 9 26.5t23 9.5q15 0 24.5 -8t9.5 -21q0 -5 -4.5 -15.5t-4.5 -19.5q0 -24 14 -38.5t36 -14.5t33.5 13t18 54t6.5 122q0 121 -23.5 172.5t-77.5 51.5q-18 0 -36 -11q-2 -1 -2 3q50 30 66.5 70.5t16.5 126.5 q0 80 -19.5 111.5t-69.5 31.5q-86 0 -86 -120v-612q0 -4 7 -4h55q2 0 2 -2t-2 -2h-223q-1 0 -1 2t1 2h55q6 0 6 4v442q0 150 52.5 222t133.5 72q82 0 131 -39t49 -110q0 -60 -42 -108.5t-106 -74.5q14 3 33 3q57 0 99 -35.5t60.5 -84.5t18.5 -102z" />
<glyph unicode="&#xe0;" horiz-adv-x="436" d="M437 31q-5 -15 -26 -27t-48 -12q-32 0 -56.5 18.5t-29.5 46.5q-20 -65 -104 -65q-57 0 -98 25.5t-41 79.5q0 37 14.5 63t38.5 38.5t42.5 18t38.5 7.5q83 8 97 18q7 5 7 12v76q0 102 -64 102q-21 0 -35 -13t-14 -38q0 -9 4.5 -20t4.5 -20q0 -16 -12 -26.5t-35 -10.5 q-22 0 -33 14t-11 33q0 30 37.5 57.5t93.5 27.5q78 0 121 -45t43 -136v-215q0 -34 26 -34q12 0 22 8.5t13 17.5q2 2 4 -1zM272 70v171q-10 -7 -23.5 -10.5t-34 -6t-28.5 -4.5q-27 -5 -40.5 -31.5t-13.5 -91.5q0 -59 15.5 -78t43.5 -19q36 0 58.5 20.5t22.5 49.5zM339 516 q2 -2 -1 -4q-131 32 -182.5 75t-51.5 86q0 15 10 25t26 10q18 0 35 -25.5t31.5 -57.5t49 -64.5t83.5 -44.5z" />
<glyph unicode="&#xe1;" horiz-adv-x="436" d="M437 31q-5 -15 -26 -27t-48 -12q-32 0 -56.5 18.5t-29.5 46.5q-20 -65 -104 -65q-57 0 -98 25.5t-41 79.5q0 37 14.5 63t38.5 38.5t42.5 18t38.5 7.5q83 8 97 18q7 5 7 12v76q0 102 -64 102q-21 0 -35 -13t-14 -38q0 -9 4.5 -20t4.5 -20q0 -16 -12 -26.5t-35 -10.5 q-22 0 -33 14t-11 33q0 30 37.5 57.5t93.5 27.5q78 0 121 -45t43 -136v-215q0 -34 26 -34q12 0 22 8.5t13 17.5q2 2 4 -1zM272 70v171q-10 -7 -23.5 -10.5t-34 -6t-28.5 -4.5q-27 -5 -40.5 -31.5t-13.5 -91.5q0 -59 15.5 -78t43.5 -19q36 0 58.5 20.5t22.5 49.5zM370 673 q0 -43 -51.5 -86t-182.5 -75q-2 0 -2.5 1.5t1.5 2.5q49 12 83.5 44.5t49 64.5t31.5 57.5t35 25.5q16 0 26 -10t10 -25z" />
<glyph unicode="&#xe2;" horiz-adv-x="436" d="M437 31q-5 -15 -26 -27t-48 -12q-32 0 -56.5 18.5t-29.5 46.5q-20 -65 -104 -65q-57 0 -98 25.5t-41 79.5q0 37 14.5 63t38.5 38.5t42.5 18t38.5 7.5q83 8 97 18q7 5 7 12v76q0 102 -64 102q-21 0 -35 -13t-14 -38q0 -9 4.5 -20t4.5 -20q0 -16 -12 -26.5t-35 -10.5 q-22 0 -33 14t-11 33q0 30 37.5 57.5t93.5 27.5q78 0 121 -45t43 -136v-215q0 -34 26 -34q12 0 22 8.5t13 17.5q2 2 4 -1zM272 70v171q-10 -7 -23.5 -10.5t-34 -6t-28.5 -4.5q-27 -5 -40.5 -31.5t-13.5 -91.5q0 -59 15.5 -78t43.5 -19q36 0 58.5 20.5t22.5 49.5zM367 526 q1 -2 0 -3t-3 0l-137 85l-127 -85q-2 -1 -3 0t0 3q111 130 133 165q2 4 4 0q27 -42 133 -165z" />
<glyph unicode="&#xe3;" horiz-adv-x="436" d="M437 31q-5 -15 -26 -27t-48 -12q-32 0 -56.5 18.5t-29.5 46.5q-20 -65 -104 -65q-57 0 -98 25.5t-41 79.5q0 37 14.5 63t38.5 38.5t42.5 18t38.5 7.5q83 8 97 18q7 5 7 12v76q0 102 -64 102q-21 0 -35 -13t-14 -38q0 -9 4.5 -20t4.5 -20q0 -16 -12 -26.5t-35 -10.5 q-22 0 -33 14t-11 33q0 30 37.5 57.5t93.5 27.5q78 0 121 -45t43 -136v-215q0 -34 26 -34q12 0 22 8.5t13 17.5q2 2 4 -1zM272 70v171q-10 -7 -23.5 -10.5t-34 -6t-28.5 -4.5q-27 -5 -40.5 -31.5t-13.5 -91.5q0 -59 15.5 -78t43.5 -19q36 0 58.5 20.5t22.5 49.5zM403 664 q0 -48 -33 -80.5t-79 -32.5q-37 0 -89.5 31t-72.5 31q-22 0 -39 -21t-17 -48q0 -2 -2 -2t-2 2q0 48 33 80.5t79 32.5q36 0 89 -30.5t72 -30.5q23 0 40 20.5t17 47.5q0 2 2 2t2 -2z" />
<glyph unicode="&#xe4;" horiz-adv-x="436" d="M437 31q-5 -15 -26 -27t-48 -12q-32 0 -56.5 18.5t-29.5 46.5q-20 -65 -104 -65q-57 0 -98 25.5t-41 79.5q0 37 14.5 63t38.5 38.5t42.5 18t38.5 7.5q83 8 97 18q7 5 7 12v76q0 102 -64 102q-21 0 -35 -13t-14 -38q0 -9 4.5 -20t4.5 -20q0 -16 -12 -26.5t-35 -10.5 q-22 0 -33 14t-11 33q0 30 37.5 57.5t93.5 27.5q78 0 121 -45t43 -136v-215q0 -34 26 -34q12 0 22 8.5t13 17.5q2 2 4 -1zM272 70v171q-10 -7 -23.5 -10.5t-34 -6t-28.5 -4.5q-27 -5 -40.5 -31.5t-13.5 -91.5q0 -59 15.5 -78t43.5 -19q36 0 58.5 20.5t22.5 49.5zM376 591 q0 -21 -13.5 -35.5t-33.5 -14.5t-34 14.5t-14 35.5t14 35.5t34 14.5t33.5 -14.5t13.5 -35.5zM182 591q0 -21 -13.5 -35.5t-33.5 -14.5t-34 14.5t-14 35.5t14 35.5t34 14.5t33.5 -14.5t13.5 -35.5z" />
<glyph unicode="&#xe5;" horiz-adv-x="436" d="M437 31q-5 -15 -26 -27t-48 -12q-32 0 -56.5 18.5t-29.5 46.5q-20 -65 -104 -65q-57 0 -98 25.5t-41 79.5q0 37 14.5 63t38.5 38.5t42.5 18t38.5 7.5q83 8 97 18q7 5 7 12v76q0 102 -64 102q-21 0 -35 -13t-14 -38q0 -9 4.5 -20t4.5 -20q0 -16 -12 -26.5t-35 -10.5 q-22 0 -33 14t-11 33q0 30 37.5 57.5t93.5 27.5q78 0 121 -45t43 -136v-215q0 -34 26 -34q12 0 22 8.5t13 17.5q2 2 4 -1zM272 70v171q-10 -7 -23.5 -10.5t-34 -6t-28.5 -4.5q-27 -5 -40.5 -31.5t-13.5 -91.5q0 -59 15.5 -78t43.5 -19q36 0 58.5 20.5t22.5 49.5zM308 608 q0 -32 -22.5 -54.5t-53.5 -22.5q-32 0 -54.5 22.5t-22.5 54.5t22.5 54.5t54.5 22.5q31 0 53.5 -22.5t22.5 -54.5zM303 608q0 30 -21 51.5t-50 21.5q-30 0 -51 -21.5t-21 -51.5t21 -51.5t51 -21.5q29 0 50 21.5t21 51.5z" />
<glyph unicode="&#xe6;" horiz-adv-x="715" d="M681 241q0 -3 -3 -3h-282q-1 -8 -1 -25q0 -88 9 -130.5t31 -64.5q23 -23 64 -23q52 0 96.5 25.5t71.5 67.5q1 1 2.5 0t0.5 -2q-28 -43 -73.5 -69t-97.5 -26q-63 0 -119 29t-80 73q0 -40 -32.5 -71t-84.5 -31q-58 0 -98.5 25t-40.5 80q0 37 14.5 63t38.5 38.5t42 18 t38 7.5q98 9 113 20q5 5 6 10v76q0 102 -72 102q-21 0 -38 -13t-17 -38q0 -8 4 -20t4 -20q0 -16 -11.5 -26.5t-34.5 -10.5q-22 0 -33 14t-11 33q0 30 40.5 57.5t96.5 27.5q96 0 137 -56q59 56 138 56q85 0 133.5 -63.5t48.5 -130.5zM587 242q-3 129 -33 166q-20 23 -55 23 q-41 0 -64 -23q-36 -37 -39 -166h191zM296 93v147q-10 -7 -27.5 -10.5t-41 -6t-31.5 -3.5q-27 -6 -40.5 -32.5t-13.5 -91.5q0 -59 15 -78t43 -19q36 0 66 27t30 67z" />
<glyph unicode="&#xe7;" horiz-adv-x="441" d="M419 86q-67 -98 -177 -95q-9 -13 -9 -27q0 -20 11.5 -32.5t26 -18t26 -21.5t11.5 -42q0 -35 -19 -56t-53 -21q-27 0 -43.5 14.5t-16.5 29.5q0 10 6.5 17.5t17.5 7.5q22 0 22 -20q0 -9 -5 -15.5t-5 -10.5q0 -20 24 -20q26 0 44 15t18 38q0 12 -12.5 20.5t-28 14.5t-28 21 t-12.5 38q0 38 21 68q-83 4 -141 68.5t-58 153.5q0 92 61 157t148 65q66 0 108.5 -31t42.5 -70q0 -46 -45 -46q-20 0 -31.5 11t-11.5 27q0 12 6 25t6 29q0 51 -75 51q-42 0 -65 -23q-21 -22 -30 -64.5t-9 -130.5t9 -130.5t30 -64.5q23 -23 65 -23q51 0 95.5 25.5t71.5 67.5 q2 1 4 -2z" />
<glyph unicode="&#xe8;" horiz-adv-x="464" d="M430 241q0 -3 -3 -3h-283v-25q0 -88 9 -130.5t31 -64.5q23 -23 64 -23q52 0 96.5 25.5t71.5 67.5q1 1 2.5 0t0.5 -2q-29 -44 -74 -69.5t-97 -25.5q-86 0 -147 65t-61 157t61 157t147 65q85 0 133.5 -63.5t48.5 -130.5zM336 242q-3 129 -33 166q-20 23 -55 23 q-41 0 -64 -23q-36 -36 -39 -166h191zM339 516q2 -2 -1 -4q-131 32 -182.5 75t-51.5 86q0 15 10 25t26 10q18 0 35 -25.5t31.5 -57.5t49 -64.5t83.5 -44.5z" />
<glyph unicode="&#xe9;" horiz-adv-x="464" d="M430 241q0 -3 -3 -3h-283v-25q0 -88 9 -130.5t31 -64.5q23 -23 64 -23q52 0 96.5 25.5t71.5 67.5q1 1 2.5 0t0.5 -2q-29 -44 -74 -69.5t-97 -25.5q-86 0 -147 65t-61 157t61 157t147 65q85 0 133.5 -63.5t48.5 -130.5zM336 242q-3 129 -33 166q-20 23 -55 23 q-41 0 -64 -23q-36 -36 -39 -166h191zM400 673q0 -43 -51.5 -86t-182.5 -75q-2 0 -2.5 1.5t1.5 2.5q49 12 83.5 44.5t49 64.5t31.5 57.5t35 25.5q16 0 26 -10t10 -25z" />
<glyph unicode="&#xea;" horiz-adv-x="464" d="M430 241q0 -3 -3 -3h-283v-25q0 -88 9 -130.5t31 -64.5q23 -23 64 -23q52 0 96.5 25.5t71.5 67.5q1 1 2.5 0t0.5 -2q-29 -44 -74 -69.5t-97 -25.5q-86 0 -147 65t-61 157t61 157t147 65q85 0 133.5 -63.5t48.5 -130.5zM336 242q-3 129 -33 166q-20 23 -55 23 q-41 0 -64 -23q-36 -36 -39 -166h191zM385 526q1 -2 0 -3t-3 0l-137 85l-127 -85q-2 -1 -3 0t0 3q111 130 133 165q2 4 4 0q27 -42 133 -165z" />
<glyph unicode="&#xeb;" horiz-adv-x="464" d="M430 241q0 -3 -3 -3h-283v-25q0 -88 9 -130.5t31 -64.5q23 -23 64 -23q52 0 96.5 25.5t71.5 67.5q1 1 2.5 0t0.5 -2q-29 -44 -74 -69.5t-97 -25.5q-86 0 -147 65t-61 157t61 157t147 65q85 0 133.5 -63.5t48.5 -130.5zM336 242q-3 129 -33 166q-20 23 -55 23 q-41 0 -64 -23q-36 -36 -39 -166h191zM388 591q0 -21 -13.5 -35.5t-33.5 -14.5t-34 14.5t-14 35.5t14 35.5t34 14.5t33.5 -14.5t13.5 -35.5zM194 591q0 -21 -13.5 -35.5t-33.5 -14.5t-34 14.5t-14 35.5t14 35.5t34 14.5t33.5 -14.5t13.5 -35.5z" />
<glyph unicode="&#xec;" horiz-adv-x="270" d="M252 0h-223q-1 0 -1 2t1 2h55q6 0 6 4v410q0 4 -6 4h-55q-1 0 -1 2t1 2h159q2 0 2 -3v-415q0 -4 7 -4h55q2 0 2 -2t-2 -2zM222 516q2 -2 -1 -4q-131 32 -182.5 75t-51.5 86q0 15 10 25t26 10q18 0 35 -25.5t31.5 -57.5t49 -64.5t83.5 -44.5z" />
<glyph unicode="&#xed;" horiz-adv-x="270" d="M252 0h-223q-1 0 -1 2t1 2h55q6 0 6 4v410q0 4 -6 4h-55q-1 0 -1 2t1 2h159q2 0 2 -3v-415q0 -4 7 -4h55q2 0 2 -2t-2 -2zM301 673q0 -43 -51.5 -86t-182.5 -75q-2 0 -2.5 1.5t1.5 2.5q49 12 83.5 44.5t49 64.5t31.5 57.5t35 25.5q16 0 26 -10t10 -25z" />
<glyph unicode="&#xee;" horiz-adv-x="270" d="M252 0h-223q-1 0 -1 2t1 2h55q6 0 6 4v410q0 4 -6 4h-55q-1 0 -1 2t1 2h159q2 0 2 -3v-415q0 -4 7 -4h55q2 0 2 -2t-2 -2zM298 526q1 -2 -0.5 -3t-2.5 0l-137 85l-127 -85q-1 -1 -2.5 0t-0.5 3q111 130 133 165q2 4 4 0q27 -42 133 -165z" />
<glyph unicode="&#xef;" horiz-adv-x="270" d="M252 0h-223q-1 0 -1 2t1 2h55q6 0 6 4v410q0 4 -6 4h-55q-1 0 -1 2t1 2h159q2 0 2 -3v-415q0 -4 7 -4h55q2 0 2 -2t-2 -2zM279 591q0 -21 -13.5 -35.5t-33.5 -14.5t-34 14.5t-14 35.5t14 35.5t34 14.5t33.5 -14.5t13.5 -35.5zM85 591q0 -21 -13.5 -35.5t-33.5 -14.5 t-34 14.5t-14 35.5t14 35.5t34 14.5t33.5 -14.5t13.5 -35.5z" />
<glyph unicode="&#xf1;" horiz-adv-x="528" d="M519 0h-223q-2 0 -2 2t2 2h55q7 0 7 4v321q0 50 -18.5 76t-46.5 26q-87 0 -113 -84v-339q0 -4 6 -4h55q1 0 1 -2t-1 -2h-222q-1 0 -1 2t1 2h55q6 0 6 4v410q0 4 -6 4h-55q-1 0 -1 2t1 2h158q3 0 3 -3v-66q13 39 44.5 58.5t68.5 19.5q77 0 120.5 -44t43.5 -123v-260 q0 -4 7 -4h55q1 0 1 -2t-1 -2zM433 664q0 -48 -33 -80.5t-79 -32.5q-37 0 -89.5 31t-72.5 31q-22 0 -39 -21t-17 -48q0 -2 -2 -2t-2 2q0 48 33 80.5t79 32.5q36 0 89 -30.5t72 -30.5q23 0 40 20.5t17 47.5q0 2 2 2t2 -2z" />
<glyph unicode="&#xf2;" horiz-adv-x="497" d="M457 213q0 -92 -61 -157t-148 -65q-86 0 -147 65t-61 157t61 157t147 65q87 0 148 -65t61 -157zM352 213q0 155 -39 195q-23 23 -65 23q-41 0 -64 -23q-39 -40 -39 -195q0 -88 9 -130.5t30 -64.5q23 -23 64 -23q42 0 65 23q21 22 30 64.5t9 130.5zM330 516q2 -2 -1 -4 q-131 32 -182.5 75t-51.5 86q0 15 10 25t26 10q18 0 35 -25.5t31.5 -57.5t49 -64.5t83.5 -44.5z" />
<glyph unicode="&#xf3;" horiz-adv-x="497" d="M457 213q0 -92 -61 -157t-148 -65q-86 0 -147 65t-61 157t61 157t147 65q87 0 148 -65t61 -157zM352 213q0 155 -39 195q-23 23 -65 23q-41 0 -64 -23q-39 -40 -39 -195q0 -88 9 -130.5t30 -64.5q23 -23 64 -23q42 0 65 23q21 22 30 64.5t9 130.5zM388 673 q0 -43 -51.5 -86t-182.5 -75q-2 0 -2.5 1.5t1.5 2.5q49 12 83.5 44.5t49 64.5t31.5 57.5t35 25.5q16 0 26 -10t10 -25z" />
<glyph unicode="&#xf4;" horiz-adv-x="497" d="M457 213q0 -92 -61 -157t-148 -65q-86 0 -147 65t-61 157t61 157t147 65q87 0 148 -65t61 -157zM352 213q0 155 -39 195q-23 23 -65 23q-41 0 -64 -23q-39 -40 -39 -195q0 -88 9 -130.5t30 -64.5q23 -23 64 -23q42 0 65 23q21 22 30 64.5t9 130.5zM379 526q1 -2 0 -3 t-3 0l-137 85l-127 -85q-2 -1 -3 0t0 3q111 130 133 165q2 4 4 0q27 -42 133 -165z" />
<glyph unicode="&#xf5;" horiz-adv-x="497" d="M457 213q0 -92 -61 -157t-148 -65q-86 0 -147 65t-61 157t61 157t147 65q87 0 148 -65t61 -157zM352 213q0 155 -39 195q-23 23 -65 23q-41 0 -64 -23q-39 -40 -39 -195q0 -88 9 -130.5t30 -64.5q23 -23 64 -23q42 0 65 23q21 22 30 64.5t9 130.5zM421 664 q0 -48 -33 -80.5t-79 -32.5q-37 0 -89.5 31t-72.5 31q-22 0 -39 -21t-17 -48q0 -2 -2 -2t-2 2q0 48 33 80.5t79 32.5q36 0 89 -30.5t72 -30.5q23 0 40 20.5t17 47.5q0 2 2 2t2 -2z" />
<glyph unicode="&#xf6;" horiz-adv-x="497" d="M457 213q0 -92 -61 -157t-148 -65q-86 0 -147 65t-61 157t61 157t147 65q87 0 148 -65t61 -157zM352 213q0 155 -39 195q-23 23 -65 23q-41 0 -64 -23q-39 -40 -39 -195q0 -88 9 -130.5t30 -64.5q23 -23 64 -23q42 0 65 23q21 22 30 64.5t9 130.5zM394 591 q0 -21 -13.5 -35.5t-33.5 -14.5t-34 14.5t-14 35.5t14 35.5t34 14.5t33.5 -14.5t13.5 -35.5zM200 591q0 -21 -13.5 -35.5t-33.5 -14.5t-34 14.5t-14 35.5t14 35.5t34 14.5t33.5 -14.5t13.5 -35.5z" />
<glyph unicode="&#xf8;" horiz-adv-x="497" d="M457 213q0 -92 -61 -157t-148 -65q-68 0 -121 42l-39 -57q-2 -2 -4 3l39 57q-83 67 -83 177q0 92 61 157t147 65q67 0 122 -42l39 57q2 2 4 -2q-21 -30 -40 -58q39 -30 61.5 -77t22.5 -100zM341 350q-11 39 -28 58q-23 23 -65 23q-41 0 -64 -23q-39 -40 -39 -195 q0 -87 9 -132q5 8 14 21t33.5 48.5t46.5 66.5t44 63t36 51zM352 213q0 85 -10 131l-46 -67q-47 -67 -94 -135l-47 -68q10 -37 29 -56q23 -23 64 -23q42 0 65 23q21 22 30 64.5t9 130.5z" />
<glyph unicode="&#xf9;" horiz-adv-x="518" d="M509 0h-159q-2 0 -2 3v67q-13 -40 -44.5 -59t-69.5 -19q-77 0 -120.5 40.5t-43.5 118.5v268q0 3 -6 3h-55q-1 0 -1 2t1 2h158q3 0 3 -3v-326q0 -50 18.5 -75.5t45.5 -25.5q87 0 114 83v340q0 3 -7 3h-55q-2 0 -2 2t2 2h159q2 0 2 -3v-415q0 -4 7 -4h55q1 0 1 -2t-1 -2z M354 516q2 -2 -1 -4q-131 32 -182.5 75t-51.5 86q0 15 10 25t26 10q18 0 35 -25.5t31.5 -57.5t49 -64.5t83.5 -44.5z" />
<glyph unicode="&#xfa;" horiz-adv-x="518" d="M509 0h-159q-2 0 -2 3v67q-13 -40 -44.5 -59t-69.5 -19q-77 0 -120.5 40.5t-43.5 118.5v268q0 3 -6 3h-55q-1 0 -1 2t1 2h158q3 0 3 -3v-326q0 -50 18.5 -75.5t45.5 -25.5q87 0 114 83v340q0 3 -7 3h-55q-2 0 -2 2t2 2h159q2 0 2 -3v-415q0 -4 7 -4h55q1 0 1 -2t-1 -2z M397 673q0 -43 -51.5 -86t-182.5 -75q-2 0 -2.5 1.5t1.5 2.5q49 12 83.5 44.5t49 64.5t31.5 57.5t35 25.5q16 0 26 -10t10 -25z" />
<glyph unicode="&#xfb;" horiz-adv-x="518" d="M509 0h-159q-2 0 -2 3v67q-13 -40 -44.5 -59t-69.5 -19q-77 0 -120.5 40.5t-43.5 118.5v268q0 3 -6 3h-55q-1 0 -1 2t1 2h158q3 0 3 -3v-326q0 -50 18.5 -75.5t45.5 -25.5q87 0 114 83v340q0 3 -7 3h-55q-2 0 -2 2t2 2h159q2 0 2 -3v-415q0 -4 7 -4h55q1 0 1 -2t-1 -2z M388 526q1 -2 -0.5 -3t-2.5 0l-137 85l-127 -85q-1 -1 -2.5 0t-0.5 3q111 130 133 165q2 4 4 0q27 -42 133 -165z" />
<glyph unicode="&#xfc;" horiz-adv-x="518" d="M509 0h-159q-2 0 -2 3v67q-13 -40 -44.5 -59t-69.5 -19q-77 0 -120.5 40.5t-43.5 118.5v268q0 3 -6 3h-55q-1 0 -1 2t1 2h158q3 0 3 -3v-326q0 -50 18.5 -75.5t45.5 -25.5q87 0 114 83v340q0 3 -7 3h-55q-2 0 -2 2t2 2h159q2 0 2 -3v-415q0 -4 7 -4h55q1 0 1 -2t-1 -2z M397 591q0 -21 -13.5 -35.5t-33.5 -14.5t-34 14.5t-14 35.5t14 35.5t34 14.5t33.5 -14.5t13.5 -35.5zM203 591q0 -21 -13.5 -35.5t-33.5 -14.5t-34 14.5t-14 35.5t14 35.5t34 14.5t33.5 -14.5t13.5 -35.5z" />
<glyph unicode="&#xff;" horiz-adv-x="415" d="M443 422h-53q-6 0 -10 -7t-14 -34l-227 -617q-17 -46 -34 -63.5t-47 -17.5q-31 0 -51 16t-20 45q0 25 15 42.5t36 17.5t32.5 -11t11.5 -28q0 -13 -10 -28t-10 -26q0 -15 22 -15q26 0 50 66l85 228l-196 429q-1 3 -8 3h-47q-2 0 -2 2t2 2h223q1 0 1 -2t-1 -2h-52 q-4 0 -5 -0.5t0 -2.5l128 -309l100 270q14 41 7 42h-54q-1 0 -1 2t1 2h128q1 0 1 -2t-1 -2zM378 591q0 -21 -13.5 -35.5t-33.5 -14.5t-34 14.5t-14 35.5t14 35.5t34 14.5t33.5 -14.5t13.5 -35.5zM184 591q0 -21 -13.5 -35.5t-33.5 -14.5t-34 14.5t-14 35.5t14 35.5t34 14.5 t33.5 -14.5t13.5 -35.5z" />
<glyph unicode="&#x131;" horiz-adv-x="270" d="M252 0h-223q-1 0 -1 2t1 2h55q6 0 6 4v410q0 4 -6 4h-55q-1 0 -1 2t1 2h159q2 0 2 -3v-415q0 -4 7 -4h55q2 0 2 -2t-2 -2z" />
<glyph unicode="&#x152;" horiz-adv-x="1009" d="M985 3q0 -3 -3 -3h-600q-138 0 -235 104t-97 250q0 145 95 250t237 105h546q3 0 3 -3v-206q0 -2 -2 -2t-2 2q0 77 -53.5 141t-143.5 64h-101q-6 0 -6 -4v-335h26q60 0 100.5 41t40.5 94q0 1 2 1t2 -1v-274q0 -1 -2 -1t-2 1q0 53 -40.5 94t-100.5 41h-26v-354q0 -4 6 -4 h104q117 0 182.5 69t65.5 156q0 1 2 1t2 -1v-226zM485 8v693q0 4 -6 4h-97q-73 0 -113 -37q-69 -66 -69 -314q0 -141 15.5 -209t53.5 -104q40 -37 113 -37h97q6 0 6 4z" />
<glyph unicode="&#x153;" horiz-adv-x="770" d="M736 241q0 -3 -3 -3h-283v-25q0 -88 9 -130.5t30 -64.5q23 -23 65 -23q52 0 96 25.5t71 67.5q1 1 3 0t1 -2q-29 -44 -74 -69.5t-97 -25.5q-97 0 -153 81q-56 -81 -153 -81q-86 0 -147 65t-61 157t61 157t147 65q97 0 153 -81q56 81 153 81q44 0 80.5 -19.5t57.5 -49.5 t32.5 -62.5t11.5 -62.5zM642 242q-3 129 -34 166q-19 23 -54 23q-42 0 -65 -23q-36 -37 -39 -166h192zM352 213q0 155 -39 195q-23 23 -65 23q-41 0 -64 -23q-39 -40 -39 -195q0 -88 9 -130.5t30 -64.5q23 -23 64 -23q42 0 65 23q21 22 30 64.5t9 130.5z" />
<glyph unicode="&#x178;" horiz-adv-x="650" d="M695 705h-78q-9 0 -30 -42l-160 -337v-318q0 -4 7 -4h90q2 0 2 -2t-2 -2h-330q-2 0 -2 2t2 2h90q6 0 6 4v301l-205 392q-2 4 -8 4h-93q-2 0 -2 2t2 2h363q1 0 1 -2t-1 -2h-108q-6 0 -4 -4l191 -367l157 329q15 40 11 42h-101q-1 0 -1 2t1 2h202q1 0 1 -2t-1 -2zM545 846 q0 -21 -13.5 -35.5t-33.5 -14.5t-34 14.5t-14 35.5t14 35.5t34 14.5t33.5 -14.5t13.5 -35.5zM351 846q0 -21 -13.5 -35.5t-33.5 -14.5t-34 14.5t-14 35.5t14 35.5t34 14.5t33.5 -14.5t13.5 -35.5z" />
<glyph unicode="&#x192;" horiz-adv-x="415" d="M508 670q0 -21 -15 -36t-36 -15q-44 0 -44 38q0 11 8.5 23.5t8.5 27.5q0 17 -5.5 23.5t-21.5 6.5q-13 0 -25 -8t-28 -34t-29.5 -68t-25.5 -118t-18 -176q0 -3 6 -3h90q1 0 1 -2t-1 -2h-90q-7 0 -7 -4l-1 -20q-5 -81 -16 -158.5t-33.5 -163.5t-53 -150t-78.5 -106 t-107 -42q-42 0 -67 18.5t-25 55.5q0 20 15 35.5t36 15.5q45 0 45 -38q0 -12 -8.5 -25t-8.5 -26q0 -17 5.5 -23.5t21.5 -6.5q78 0 113 149q24 103 43 406q4 65 5 79q0 4 -6 4h-90q-2 0 -2 2t2 2h90q7 0 7 3l1 20q11 172 89.5 281t167.5 109q36 0 61.5 -20t25.5 -54z" />
<glyph unicode="&#x2c6;" horiz-adv-x="326" d="M307 526q1 -2 0 -3t-3 0l-137 85l-127 -85q-2 -1 -3 0t0 3q111 130 133 165q2 4 4 0q27 -42 133 -165z" />
<glyph unicode="&#x2c7;" horiz-adv-x="326" d="M297 678q-111 -130 -133 -165q-2 -4 -4 0q-27 42 -133 165q-1 2 0 3t3 0l137 -85l127 85q2 1 3 0t0 -3z" />
<glyph unicode="&#x2d8;" horiz-adv-x="380" d="M330 690q0 -59 -33.5 -107t-106.5 -48t-106.5 48t-33.5 107q0 2 2 2t2 -2q0 -34 33 -63.5t103 -29.5t103 29.5t33 63.5q0 2 2 2t2 -2z" />
<glyph unicode="&#x2d9;" horiz-adv-x="245" d="M170 591q0 -21 -13.5 -35.5t-33.5 -14.5t-34 14.5t-14 35.5t14 35.5t34 14.5t33.5 -14.5t13.5 -35.5z" />
<glyph unicode="&#x2da;" horiz-adv-x="283" d="M218 608q0 -32 -22.5 -54.5t-53.5 -22.5q-32 0 -54.5 22.5t-22.5 54.5t22.5 54.5t54.5 22.5q31 0 53.5 -22.5t22.5 -54.5zM213 608q0 30 -21 51.5t-50 21.5q-30 0 -51 -21.5t-21 -51.5t21 -51.5t51 -21.5q29 0 50 21.5t21 51.5z" />
<glyph unicode="&#x2db;" horiz-adv-x="273" d="M228 -164q-35 -51 -92 -51q-36 0 -56.5 21.5t-20.5 55.5q0 73 129 138q2 0 3 -2q-32 -20 -52.5 -52t-20.5 -67q0 -33 15.5 -47.5t38.5 -14.5q30 0 54 22q1 1 2 -0.5t0 -2.5z" />
<glyph unicode="&#x2dc;" horiz-adv-x="406" d="M370 664q0 -48 -33 -80.5t-79 -32.5q-37 0 -89.5 31t-72.5 31q-22 0 -39 -21t-17 -48q0 -2 -2 -2t-2 2q0 48 33 80.5t79 32.5q36 0 89 -30.5t72 -30.5q23 0 40 20.5t17 47.5q0 2 2 2t2 -2z" />
<glyph unicode="&#x2dd;" horiz-adv-x="548" d="M468 673q0 -43 -51.5 -86t-182.5 -75q-2 0 -2.5 1.5t1.5 2.5q49 12 83.5 44.5t49 64.5t31.5 57.5t35 25.5q16 0 26 -10t10 -25zM274 673q0 -43 -51.5 -86t-182.5 -75q-2 0 -2.5 1.5t1.5 2.5q49 12 83.5 44.5t49 64.5t31.5 57.5t35 25.5q16 0 26 -10t10 -25z" />
<glyph unicode="&#x3a9;" horiz-adv-x="582" d="M633 670q0 -21 -13.5 -36t-34.5 -15q-22 0 -34 10.5t-12 26.5q0 12 6.5 24.5t6.5 27.5q0 16 -6.5 23t-22.5 7q-51 0 -51 -118v-190q0 -4 7 -4h83q2 0 2 -2t-2 -2h-83q-7 0 -7 -4v-410q0 -4 7 -4h55q2 0 2 -2t-2 -2h-223q-1 0 -1 2t1 2h55q7 0 7 4v410q0 4 -7 4h-159 q-7 0 -7 -4v-410q0 -4 7 -4h54q2 0 2 -2t-2 -2h-222q-1 0 -1 2t1 2h55q6 0 6 4v410q0 4 -6 4h-69q-1 0 -1 2t1 2h69q6 0 6 4v12q0 295 172 295q36 0 62.5 -20t26.5 -54q0 -21 -13.5 -36t-34.5 -15q-47 0 -47 37q0 12 7 24.5t7 27.5q0 16 -6.5 23t-22.5 7q-51 0 -51 -118 v-183q0 -4 7 -4h159q7 0 7 4v19q0 295 171 295q36 0 62.5 -20t26.5 -54z" />
<glyph unicode="&#x2013;" horiz-adv-x="570" d="M535 234h-500q-1 0 -1 2t1 2h500q1 0 1 -2t-1 -2z" />
<glyph unicode="&#x2014;" horiz-adv-x="1070" d="M1035 234h-1000q-1 0 -1 2t1 2h1000q1 0 1 -2t-1 -2z" />
<glyph unicode="&#x2018;" d="M157 728q-19 -6 -33 -18q-39 -33 -39 -68t37 -62q25 -17 25 -48q0 -24 -16.5 -41.5t-39.5 -17.5q-59 0 -59 74q0 45 39 107.5t85 77.5q1 1 1.5 -1t-0.5 -3z" />
<glyph unicode="&#x2019;" d="M150 652q0 -45 -39 -107.5t-85 -77.5q-1 -1 -1.5 1t0.5 3q19 6 33 18q39 33 39 68t-37 62q-25 17 -25 48q0 24 16.5 41.5t39.5 17.5q59 0 59 -74z" />
<glyph unicode="&#x201a;" d="M150 31q0 -45 -39 -107.5t-85 -77.5q-1 -1 -1.5 1t0.5 3q19 6 33 18q39 33 39 68t-37 62q-25 17 -25 48q0 24 16.5 41.5t39.5 17.5q59 0 59 -74z" />
<glyph unicode="&#x201c;" horiz-adv-x="331" d="M307 728q-19 -6 -33 -18q-39 -33 -39 -68t37 -62q25 -17 25 -48q0 -24 -16.5 -41.5t-39.5 -17.5q-59 0 -59 74q0 45 39 107.5t85 77.5q1 1 1.5 -1t-0.5 -3zM157 728q-19 -6 -33 -18q-39 -33 -39 -68t37 -62q25 -17 25 -48q0 -24 -16.5 -41.5t-39.5 -17.5q-59 0 -59 74 q0 45 39 107.5t85 77.5q1 1 1.5 -1t-0.5 -3z" />
<glyph unicode="&#x201d;" horiz-adv-x="331" d="M300 652q0 -45 -39 -107.5t-85 -77.5q-1 -1 -1.5 1t0.5 3q19 6 33 18q39 33 39 68t-37 62q-25 17 -25 48q0 24 16.5 41.5t39.5 17.5q59 0 59 -74zM150 652q0 -45 -39 -107.5t-85 -77.5q-1 -1 -1.5 1t0.5 3q19 6 33 18q39 33 39 68t-37 62q-25 17 -25 48q0 24 16.5 41.5 t39.5 17.5q59 0 59 -74z" />
<glyph unicode="&#x201e;" horiz-adv-x="331" d="M300 31q0 -45 -39 -107.5t-85 -77.5q-1 -1 -1.5 1t0.5 3q19 6 33 18q39 33 39 68t-37 62q-25 17 -25 48q0 24 16.5 41.5t39.5 17.5q59 0 59 -74zM150 31q0 -45 -39 -107.5t-85 -77.5q-1 -1 -1.5 1t0.5 3q19 6 33 18q39 33 39 68t-37 62q-25 17 -25 48q0 24 16.5 41.5 t39.5 17.5q59 0 59 -74z" />
<glyph unicode="&#x2020;" horiz-adv-x="601" d="M576 376q0 -19 -11 -33t-33 -14q-23 0 -34.5 10.5t-11.5 26.5q0 8 4 20t4 21q0 24 -17.5 37t-38.5 13q-59 0 -87 -24.5t-28 -90.5q0 -57 38 -74q1 0 -1 -3q-18 8 -30 -37q-28 -105 -28 -545q0 -1 -2 -1t-2 1q0 551 -45 581q-6 3 -12 1q-2 0 -2 3q38 16 38 74 q0 66 -27.5 90.5t-87.5 24.5q-21 0 -38 -13t-17 -37q0 -9 4 -21t4 -20q0 -16 -12 -26.5t-35 -10.5q-22 0 -32.5 14t-10.5 33q0 30 40.5 57.5t96.5 27.5q87 0 108 -53q0 16 -5 50t-5 54q0 21 9.5 57t9.5 44t-17.5 29t-17.5 43q0 25 16.5 42t39.5 17t39.5 -17t16.5 -42 q0 -22 -17 -43t-17 -29t9 -44t9 -57q0 -20 -5 -54t-5 -50q23 53 108 53q56 0 97 -27.5t41 -57.5z" />
<glyph unicode="&#x2021;" horiz-adv-x="601" d="M568 -6q0 -30 -40.5 -57t-96.5 -27q-41 0 -67 18.5t-34 48.5q0 -16 5 -43t5 -47q0 -21 -9.5 -43t-9.5 -30t17.5 -29t17.5 -43q0 -25 -16.5 -42t-39.5 -17t-39.5 17t-16.5 42q0 22 17 43t17 29t-9 30t-9 43q0 20 5 47t5 43q-8 -30 -34 -48.5t-67 -18.5q-56 0 -97 27 t-41 57q0 20 11 34t33 14q23 0 34.5 -11t11.5 -27q0 -8 -4 -19.5t-4 -20.5q0 -24 17.5 -37t38.5 -13q54 0 81 30.5t27 97.5q0 25 -8.5 41t-14 19t-15.5 8q-1 0 1 3q8 -3 13 -3q20 0 32.5 29.5t12.5 73.5q0 45 -12.5 74.5t-32.5 29.5q-5 0 -13 -3h-2q-1 2 1 3q11 5 16 8 t13.5 18.5t8.5 40.5q0 129 -108 129q-22 0 -39 -13t-17 -38q0 -8 4 -20t4 -20q0 -16 -11.5 -26.5t-34.5 -10.5q-22 0 -33 14t-11 33q0 30 41 57.5t97 27.5q41 0 67 -18.5t34 -48.5q0 16 -5 43t-5 47q0 21 9 43t9 30t-17 29t-17 43q0 25 16.5 42t39.5 17t39.5 -17t16.5 -42 q0 -22 -17.5 -43t-17.5 -29t9.5 -30t9.5 -43q0 -20 -5 -47t-5 -43q8 30 34 48.5t67 18.5q56 0 96.5 -27.5t40.5 -57.5q0 -19 -10.5 -33t-32.5 -14q-23 0 -35 10.5t-12 26.5q0 8 4 20t4 20q0 25 -17 38t-38 13q-108 0 -108 -129q0 -25 8 -40.5t13.5 -19t16.5 -7.5q1 -1 -2 -3 q-6 3 -13 3q-20 0 -32 -29.5t-12 -74.5q0 -44 12 -73.5t32 -29.5q7 0 13 3q2 0 2 -3q-10 -4 -16 -8t-14 -19.5t-8 -40.5q0 -67 27 -97.5t81 -30.5q21 0 38 13t17 37q0 9 -4 20.5t-4 19.5q0 16 12 27t35 11q22 0 32.5 -14t10.5 -34z" />
<glyph unicode="&#x2022;" horiz-adv-x="345" d="M295 354q0 -51 -36 -87t-86 -36q-51 0 -87 36t-36 87t36 87t87 36q50 0 86 -36t36 -87z" />
<glyph unicode="&#x2026;" horiz-adv-x="633" d="M583 46q0 -25 -16 -42t-39 -17t-39.5 17t-16.5 42q0 24 16.5 41.5t39.5 17.5q22 0 38.5 -17.5t16.5 -41.5zM372 46q0 -25 -16 -42t-39 -17t-39.5 17t-16.5 42q0 24 16.5 41.5t39.5 17.5q22 0 38.5 -17.5t16.5 -41.5zM161 46q0 -25 -16 -42t-39 -17t-39.5 17t-16.5 42 q0 24 16.5 41.5t39.5 17.5q22 0 38.5 -17.5t16.5 -41.5z" />
<glyph unicode="&#x2030;" horiz-adv-x="1107" d="M1072 220q0 -82 -68.5 -155.5t-163.5 -73.5q-54 0 -87.5 34t-33.5 92q0 82 69 155.5t164 73.5q53 0 86.5 -34t33.5 -92zM387 587q0 -82 -68.5 -155.5t-163.5 -73.5q-53 0 -86.5 34t-33.5 92q0 83 68.5 156t163.5 73q53 0 86.5 -34t33.5 -92zM590 726l-453 -750 q-2 -2 -4 3l453 749q2 2 4 -2zM688 220q0 -82 -68.5 -155.5t-163.5 -73.5q-54 0 -87.5 34t-33.5 92q0 82 69 155.5t164 73.5q53 0 86.5 -34t33.5 -92zM1001 274q0 37 -11 52.5t-38 15.5q-37 0 -60 -18q-40 -30 -71 -119t-31 -142q0 -36 11.5 -52t38.5 -16q36 0 60 18 q40 30 70.5 119t30.5 142zM317 641q0 36 -11.5 52t-38.5 16q-37 0 -60 -18q-40 -30 -71 -119t-31 -142q0 -36 11.5 -52t38.5 -16q36 0 60 18q40 30 71 119t31 142zM617 274q0 37 -11 52.5t-38 15.5q-37 0 -60 -18q-40 -30 -71 -119t-31 -142q0 -36 11.5 -52t38.5 -16 q36 0 60 18q40 30 70.5 119t30.5 142z" />
<glyph unicode="&#x2039;" horiz-adv-x="227" d="M190 50q0 -3 -3.5 -3t-3.5 3q0 27 -17.5 55.5t-44 50t-46.5 34.5t-35 21q-4 2 0 4q23 12 51 30.5t60 56t32 73.5q0 3 3.5 3t3.5 -3q0 -44 -21 -91.5t-46 -70.5q25 -23 46 -71t21 -92z" />
<glyph unicode="&#x203a;" horiz-adv-x="227" d="M187 211q-15 -8 -35 -21t-46.5 -34.5t-44 -50t-17.5 -55.5q0 -3 -3.5 -3t-3.5 3q0 44 21 92t46 71q-25 23 -46 70.5t-21 91.5q0 3 3.5 3t3.5 -3q0 -36 32 -73.5t60 -56t51 -30.5q4 -2 0 -4z" />
<glyph unicode="&#x2044;" horiz-adv-x="543" d="M500 726l-453 -750q-2 -2 -4 3l453 749q2 2 4 -2z" />
<glyph unicode="&#x2122;" horiz-adv-x="396" d="M384 564h-74q-1 0 -1 2t1 2h20q1 0 1 1v128l-53 -135h-1l-56 137v-130q0 -1 2 -1h20v-4h-47q-1 0 -1 2t1 2h20q1 0 1 1v135q0 1 -1 1h-20q-1 0 -1 2t1 2h51q2 0 3 -4l40 -103l40 103q1 4 3 4h51v-4h-20q-2 0 -2 -1v-135q0 -1 2 -1h20v-4zM171 658h-4q0 19 -13.5 33 t-36.5 14h-3q-1 0 -1 -1v-135q0 -1 1 -1h20q1 0 1 -2t-1 -2h-74v4h20q2 0 2 1v135q0 1 -2 1h-2q-24 0 -37 -14t-13 -33h-4v50q0 1 1 1h146v-1v-50z" />
<glyph unicode="&#x2212;" horiz-adv-x="420" d="M370 211h-320q-2 0 -2 2t2 2h320q2 0 2 -2t-2 -2z" />
<glyph unicode="&#x221a;" horiz-adv-x="786" d="M777 0h-222q-1 0 -1 2t1 2h55q6 0 6 4v414h-152q-6 0 -6 -4v-410q0 -4 6 -4h55q1 0 1 -2t-1 -2h-222q-1 0 -1 2t1 2h55q6 0 6 4v410q0 4 -6 4h-145q-7 0 -7 -4v-410q0 -4 7 -4h54q1 0 1 -2t-1 -2h-223q-2 0 -2 2t2 2h55q7 0 7 4v410q0 4 -7 4h-69q-2 0 -2 2t2 2h69 q7 0 7 4v19q0 148 58 218t148 70q32 0 64 -19t42 -47q26 38 69.5 55.5t78.5 17.5q25 0 46.5 -9t22.5 -9q4 0 41 9t43 9q3 0 3 -3v-733q0 -4 6 -4h55q1 0 1 -2t-1 -2zM616 426v291q0 8 -18 14.5t-38 6.5q-45 0 -73.5 -28.5t-28.5 -89.5v-190q0 -4 6 -4h152zM408 665 q-8 28 -38.5 47t-67.5 19q-42 0 -72 -29t-30 -89v-183q0 -4 7 -4h145q6 0 6 4v19q0 143 50 216z" />
<glyph unicode="&#x2248;" horiz-adv-x="797" d="M778 0h-222q-2 0 -2 2t2 2h55q6 0 6 4v410q0 4 -6 4h-146q-6 0 -6 -4v-410q0 -4 6 -4h55q2 0 2 -2t-2 -2h-222q-2 0 -2 2t2 2h55q6 0 6 4v410q0 4 -6 4h-146q-7 0 -7 -4v-410q0 -4 7 -4h55q2 0 2 -2t-2 -2h-223q-1 0 -1 2t1 2h54q7 0 7 4v410q0 4 -7 4h-68q-1 0 -1 2t1 2 h68q7 0 7 4v19q0 148 58.5 218t148.5 70q32 0 64 -19t42 -47q55 73 169 73q71 0 109 -34t38 -79q0 -24 -15.5 -41.5t-39.5 -17.5q-26 0 -40 12t-14 31q0 13 8 27.5t8 31.5q0 34 -16.5 49t-58.5 15t-72 -29t-30 -89v-190q0 -4 6 -4h249q3 0 3 -3v-415q0 -4 6 -4h55q2 0 2 -2 t-2 -2zM409 665q-8 28 -38.5 47t-67.5 19q-43 0 -73 -29t-30 -89v-183q0 -4 7 -4h146q6 0 6 4v19q0 143 50 216z" />
<glyph unicode="&#x25fc;" horiz-adv-x="425" d="M0 425h425v-425h-425v425z" />
<glyph unicode="&#xf8ff;" horiz-adv-x="967" d="M867 0h-767v750h767v-750zM820 520q0 2 -2 2q-8 2 -9 9l-8 33q-1 1 -1 4q0 4 8 5q1 0 1 1q0 2 -2 2q-3 0 -7 -0.5t-7 -0.5t-7 0.5t-6 0.5v-1q0 -2 1 -2q6 -1 9 -9l3 -14h-25l-4 14v4q0 4 7 5v1q0 2 -1 2q-3 0 -7 -0.5t-7 -0.5q-2 0 -6 0.5t-7 0.5v-1v-2q8 -1 11 -9l7 -33 q1 -1 1 -4q0 -4 -8 -5v-1q0 -2 1 -2q3 0 7.5 0.5t7.5 0.5t6.5 -0.5t5.5 -0.5v1v2q-9 2 -9 9l-4 15h25l3 -15q1 -1 1 -4q0 -4 -7 -5v-1q0 -2 1 -2q3 0 7 0.5t7 0.5t7 -0.5t6 -0.5q1 0 1 1zM559 686q-1 2 -2 6t-2 6q-2 -1 -15 -1t-16 1q0 -2 -2 -12h1h1q3 9 9 9q3 0 3 -3v-22 q0 -5 -5 -6q-1 0 -1 -1t1 -1h9h8q1 0 1 1t-1 1q-5 1 -5 6v22q0 3 3 3q8 0 11 -9h2zM694 540q0 15 -11 26.5t-25 11.5q-8 0 -15 -5.5t-7 -16.5q0 -15 11 -26.5t25 -11.5q8 0 15 5.5t7 16.5zM503 662v1v1q-6 1 -6 6v19q0 6 6 6v1v1h-9h-9v-1v-1q5 0 5 -6v-8h-17v8q0 6 5 6v1v1 h-9h-8q-1 0 -1 -1t1 -1q5 0 5 -6v-19q0 -5 -5 -6q-1 0 -1 -1t1 -1h8h9v1v1q-5 1 -5 6v9h17v-9q0 -5 -5 -6v-1v-1h9h9zM825 378v62h-147v-62h36v28h11v-65h-14v-33h81v33h-14v65h11v-28h36zM587 536q0 11 -13 18q4 4 4 9t-6 10t-14 5q-13 0 -13 -12q0 -6 5 -6q4 0 4 3 q0 2 -1.5 3.5t-1.5 2.5q0 6 7 6q10 0 10 -12q0 -4 -2 -6h-8q-8 0 -8 -6t8 -6q6 0 11 5q6 -4 6 -15q0 -14 -12 -14t-12 9q0 3 3 3l2 -1q1 -1 3 -1q4 0 4 5t-7 5q-9 0 -9 -10q0 -13 16 -13q24 0 24 18zM826 619v4h-685v-4h685zM439 663l-1 1q-5 1 -5 6v19q0 6 5 6q1 0 1 1 l-1 1h-16h-12q0 -6 -2 -10q1 -1 2 -1v1q3 8 9 8h3q4 0 4 -4v-10h-4q-6 0 -6 5q0 1 -1 1t-1 -1v-6v-6q0 -1 1 -1l1 1q0 6 6 6h4v-12q0 -3 -4 -3h-3q-7 0 -12 9l-1 -1q0 -2 1.5 -5.5t2.5 -5.5h12h16q1 0 1 1zM497 520q0 2 -1 2q-7 2 -10 9l-7 33q-1 1 -1 4q0 4 7 5q1 0 1 1 l-1 2q-2 0 -12 -0.5t-13 -0.5t-10 0.5t-10 0.5q1 -2 1 -7q0 -1 -0.5 -4.5t-0.5 -5.5q0 -1 2 -1q1 0 1 1q1 13 14 13h4q5 0 6 -6l3 -16h-4q-9 0 -12 9q0 1 -2 1q-1 0 -1 -1q1 -2 2 -5.5t1 -5.5q1 -2 1.5 -6t0.5 -6h2h1q-1 11 8 11h5l3 -16q1 -1 1 -4q0 -4 -8 -5q-1 0 -1 -1 q1 -2 2 -2q3 0 7 0.5t7 0.5t7 -0.5t7 -0.5v1zM823 173q-1 2 -2 2q-8 1 -9 9l-9 32v4q0 4 8 5l1 1q0 2 -2 2h-25h-19v-6v-11l1 -1l1 1q3 13 14 13h4q5 0 6 -6l4 -15h-5q-9 0 -12 9h-1h-2q1 -3 2 -6.5t1 -5.5q0 -1 1 -5t2 -7h1h1q-1 11 8 11h5l3 -15v-2l1 -2q0 -4 -8 -5v-2 q0 -2 1 -2q3 0 7.5 0.5t7.5 0.5t7 -0.5t6 -0.5q1 1 1 2zM826 476v4h-685v-4h685zM644 406v34h-81v-34h11l-15 -23l-15 23h10v34h-62v-34h12l37 -46v-19h-14v-33h81v33h-15v20l37 45h14zM399 521q0 8 -13 9q-3 4 -5 17t-7.5 22t-16.5 9q-5 0 -9 -3.5t-4 -6.5q0 -5 5 -5 q4 0 4 6t5 6q6 0 7.5 -7.5t3.5 -19t8 -18.5q-8 0 -12.5 -6.5t-8.5 -6.5q-5 0 -5 4q0 2 1 3t1 2q0 4 -5 4t-5 -6q0 -11 13 -11q10 0 16 6t11 6q5 -7 12 -7q4 0 4 3zM725 192q0 15 -11 26.5t-25 11.5q-8 0 -14.5 -5.5t-6.5 -16.5q0 -15 11 -26.5t24 -11.5q8 0 15 5.5t7 16.5z M292 536q0 12 -13 18q4 4 4 9t-6 10t-14 5q-5 0 -9 -3.5t-4 -8.5q0 -6 5 -6t5 3q0 2 -1.5 3.5t-1.5 2.5q0 6 6 6q10 0 10 -12q0 -2 -1 -4v-2h-9q-7 0 -7 -6t7 -6t12 5q6 -6 6 -15q0 -14 -12 -14t-12 9q0 3 2 3l1 -1q2 -1 4 -1q5 0 5 5t-8 5q-9 0 -9 -10q0 -13 17 -13 q23 0 23 18zM620 225v1q0 2 -1 2h-15h-14v-1q0 -2 1 -2q9 -1 10 -9l5 -21q2 -8 2 -10q0 -10 -13 -10q-15 0 -20 22l-4 19q0 1 -1 2v2q0 4 8 5v2v1h-12h-11v-1q0 -2 1 -2q10 -1 11 -9l5 -20q7 -26 26 -26q21 0 21 16q0 2 -2 8l-5 22v2l-1 2q0 4 9 5zM455 308v33h-14v65h14v34 h-96q-21 0 -34 -11.5t-13 -28.5q0 -18 13 -29t34 -11h30v-19h-15v-33h81zM826 272v4h-685v-4h685zM694 47v1v1q-6 0 -6 5l-1 20q0 5 6 5v2v1q-1 0 -2.5 -0.5t-2.5 -0.5t-2.5 0.5t-2.5 0.5l-24 -25v17q0 5 6 5v2v1q-1 0 -4 -0.5t-4 -0.5t-3 0.5t-4 0.5v-1v-2q6 0 6 -5v-28h2 h1l25 27l1 -19q0 -5 -5 -5l-1 -1q0 -1 1 -1h6h8zM203 520l-1 2q-8 2 -11 9l-7 33q-1 1 -1 4q0 4 8 5v1v2q-3 0 -7 -0.5t-6 -0.5t-6.5 0.5t-7.5 0.5q-20 0 -20 -13t19 -17l-8 -16q-5 -8 -14 -9q-1 0 -1 -2q0 -1 2 -1t8 0.5t10 0.5l12 23q1 3 5 3l4 -14v-4q0 -4 -8 -5v-1 q0 -2 1 -2q2 0 7 0.5t8 0.5t7 -0.5t6 -0.5q1 0 1 1zM522 173l-1 2q-9 1 -9 9l-7 32q-1 1 -1 3q0 5 9 6l1 1q0 2 -2 2h-5h-9l-30 -40l-4 28q-2 8 7 9l1 1q0 2 -2 2q-1 0 -4.5 -0.5t-6.5 -0.5q-2 0 -5 0.5t-5 0.5v-1v-2q8 -1 10 -9l8 -45q0 -1 1 -1h2l31 44l5 -30q2 -8 -6 -9 q-1 0 -1 -2l1 -2q1 0 5 0.5t7 0.5q2 0 5 -0.5t4 -0.5t1 2zM632 46v2v1q-6 0 -6 5v20q0 5 6 5v2v1q-2 0 -8 -0.5t-8 -0.5q-3 0 -6.5 0.5t-5.5 0.5q-2 -8 -2 -10v-1q1 0 1 1q2 7 10 7h2q4 0 4 -4v-9h-4q-5 0 -6 5q0 1 -1 1v-1v-7v-6h1q1 6 6 6h4v-11q0 -4 -4 -4h-2q-9 0 -12 9 h-1q-1 0 -1 -1q3 -4 4 -11q4 1 12 1q13 0 17 -1zM582 81v1q-2 0 -4 -0.5t-3 -0.5t-3.5 0.5t-4.5 0.5v-1v-2q2 0 2 -3v-2l-9 -19l-6 9l5 9q1 6 6 6q1 1 1 2l-1 1q-2 0 -3.5 -0.5t-3.5 -0.5q-1 0 -3 0.5t-4 0.5q-1 0 -2.5 -0.5t-2.5 -0.5t-3 0.5t-4 0.5v-1q0 -2 1 -2q4 0 7 -6 l3 -5l-7 -13l-8 18v3q0 3 2 3q1 0 1 2q0 1 -1 1t-2.5 -0.5t-3.5 -0.5q-1 0 -2.5 0.5t-2.5 0.5v-1v-2q3 0 6 -6l12 -27h1h1l7 15l9 -15h1l12 27q4 6 6 6q1 0 1 2zM826 128v4h-685v-4h685zM277 308v33h-14v65h14v34h-141v-62h41v28h33v-20h-24v-24h24v-21h-33v28h-41v-61h141z M413 171v2q0 2 -1 2q-9 1 -10 9l-8 32v4q0 4 7 5v1v2h-15q-3 0 -8 0.5t-7 0.5q-10 0 -17.5 -6t-7.5 -17q0 -15 10.5 -24.5t24.5 -9.5h15q13 0 17 -1zM479 81v1q-1 0 -3.5 -0.5t-4.5 -0.5t-4.5 0.5t-3.5 0.5l-1 -1q0 -2 1 -2q2 0 2 -2t-1 -3l-6 -9l-6 9l-1 2q0 3 4 3v2v1 q-1 0 -4 -0.5t-4 -0.5t-3 0.5t-3 0.5v-1v-2q4 0 8 -5l8 -12v-8q0 -5 -5 -5v-1v-2q1 0 3.5 0.5t5.5 0.5q1 0 4 -0.5t4 -0.5t1 2q0 1 -1 1q-5 0 -5 5v8l8 12q2 5 7 5v2zM306 173l-1 2q-9 1 -10 9l-8 32v4q0 4 7 5l1 1q0 2 -2 2h-12h-14q-19 0 -19 -12q0 -6 5.5 -11t12.5 -6 l-9 -16q-3 -7 -12 -10q-1 0 -1 -1l1 -2q10 2 18 2l12 22q2 3 6 3l3 -13v-4q0 -4 -7 -5q-1 0 -1 -2l1 -2q3 0 7.5 0.5t7.5 0.5t7 -0.5t6 -0.5q1 1 1 2zM424 64q0 18 -20 18q-19 0 -19 -18t19 -18q20 0 20 18zM364 48q0 1 -1 1q-5 0 -5 5v20q0 5 5 5q1 0 1 2q0 1 -1 1t-4 -0.5 t-5 -0.5t-4.5 0.5t-4.5 0.5q-12 0 -12 -9q0 -6 8 -9l-8 -11q-2 -4 -7 -4v-1v-1h6h6l6 11q4 5 7 5v-9q0 -5 -5 -5l-1 -1q0 -2 1 -2t3.5 0.5t4.5 0.5q3 0 5.5 -0.5t3.5 -0.5t1 2zM202 215q2 2 0 2q-7 13 -18 13q-14 0 -14 -18v-5q-7 23 -24 23q-9 0 -9 -12v-1h3q0 6 8 6 q15 0 24 -33l1 -6v-4q0 -4 -7 -5v-2q0 -2 1 -2q3 0 7.5 0.5t7.5 0.5q2 0 6 -0.5t6 -0.5q1 1 1 2l-1 2q-9 1 -10 9l-2 8q-3 9 -3 17q0 13 9 13q5 0 12 -7h2zM308 46v2v1q-6 0 -6 5v20q0 5 6 5v2v1q-1 0 -4 -0.5t-5 -0.5t-4.5 0.5t-4.5 0.5v-1v-2q6 0 6 -5v-10q-2 0 -4 3l-8 8 q-2 2 -2 3t3 1v2v1q-1 0 -3 -0.5t-4 -0.5t-3.5 0.5t-2.5 0.5v-1v-2q4 0 8 -4l9 -9l-13 -13q-4 -4 -7 -4l-1 -1q0 -2 1 -2t3.5 0.5t4.5 0.5q1 0 4.5 -0.5t5.5 -0.5v2v1q-3 0 -3 2q0 1 1 2l7 8q2 2 4 2v-9q0 -5 -6 -5v-1v-2q2 0 4.5 0.5t4.5 0.5t5 -0.5t4 -0.5zM683 535 q0 -14 -12 -14q-9 0 -16.5 12t-7.5 27t12 15q9 0 16.5 -12t7.5 -28zM565 553q-3 -4 -7 -4t-4 2q0 3 4 3q5 0 7 -1zM713 188q0 -15 -10 -15t-17 12t-7 28q0 14 10 14t17 -12t7 -27zM270 553q-3 -4 -7 -4q-3 0 -3 2q0 3 3 3q5 0 7 -1zM389 384h-11q-13 0 -13 11t13 11h11v-22z M176 548h-5q-15 0 -15 15q0 9 8 9q7 0 9 -6zM554 77q0 -1 -3 -6l-2 5q0 3 2 3q3 0 3 -2zM392 182q0 -6 -4 -6h-5q-11 0 -18.5 9.5t-7.5 21.5q0 18 14 18l6 -1q4 0 6 -6zM280 201h-5q-15 0 -15 14q0 10 8 10q7 0 7 -7zM416 64q0 -16 -12 -16t-12 16q0 17 12 17t12 -17z M351 65h-3q-8 0 -8 8q0 6 7 6q4 0 4 -4v-10z" />
<glyph unicode="&#xfb01;" horiz-adv-x="538" d="M519 0h-222q-1 0 -1 2t1 2h55q6 0 6 4v410q0 4 -6 4h-146q-6 0 -6 -4v-410q0 -4 6 -4h55q1 0 1 -2t-1 -2h-223q-2 0 -2 2t2 2h55q7 0 7 4v410q0 4 -7 4h-69q-2 0 -2 2t2 2h69q7 0 7 4v19q0 158 57 226.5t165 68.5q71 0 109.5 -34t38.5 -79q0 -24 -15.5 -41.5t-39.5 -17.5 q-27 0 -40.5 12t-13.5 31q0 13 7.5 27.5t7.5 31.5q0 34 -16 49t-58 15t-72 -29t-30 -89v-190q0 -4 6 -4h249q3 0 3 -3v-415q0 -4 6 -4h55q1 0 1 -2t-1 -2z" />
<glyph unicode="&#xfb02;" horiz-adv-x="528" d="M519 0h-222q-1 0 -1 2t1 2h55q6 0 6 4v414h-152q-6 0 -6 -4v-410q0 -4 6 -4h55q1 0 1 -2t-1 -2h-223q-2 0 -2 2t2 2h55q7 0 7 4v410q0 4 -7 4h-69q-2 0 -2 2t2 2h69q7 0 7 4v19q0 85 18 146t49 92t64 44t71 13q24 0 46 -9l22 -9q5 0 41.5 9t43.5 9q3 0 3 -3v-733 q0 -4 6 -4h55q1 0 1 -2t-1 -2zM358 426v291q0 8 -18 14.5t-38 6.5q-45 0 -73.5 -28.5t-28.5 -89.5v-190q0 -4 6 -4h152z" />
</font>
</defs>
</svg>
